<?xml version="1.0" encoding="UTF-8" standalone="no"?>
<svg
   version="1.1"
   width="256"
   height="256"
   viewBox="0 0 256 256"
   xml:space="preserve"
   id="svg2"
   xmlns="http://www.w3.org/2000/svg"
   xmlns:svg="http://www.w3.org/2000/svg">

<defs
   id="defs1" />
<path
   id="path2"
   style="fill:#000000;fill-rule:nonzero;stroke:none;stroke-width:2.81;stroke-linecap:butt;stroke-linejoin:miter;stroke-miterlimit:10;stroke-dasharray:none"
   d="m 127.85659,1.4065934 c -69.724527,0 -126.4499966,56.7254696 -126.4499966,126.4499966 0,69.72453 56.7254696,126.45 126.4499966,126.45 69.72453,0 126.45,-56.72547 126.45,-126.45 0,-69.724527 -56.72547,-126.4499966 -126.45,-126.4499966 z M 211.6536,198.37635 c -9.95583,-14.76093 -23.76417,-26.88608 -39.78679,-34.65573 -6.35341,-3.07976 -13.77181,-3.0348 -20.36407,0.13207 -7.41278,3.56308 -15.3707,5.3671 -23.64615,5.3671 -8.27545,0 -16.23056,-1.80683 -23.64615,-5.3671 -6.583827,-3.16125 -14.005037,-3.21183 -20.364067,-0.13207 -16.02262,7.76965 -29.83096,19.8948 -39.7896,34.65573 -16.07601,-19.07428 -25.79018,-43.67864 -25.79018,-70.51976 0,-60.429047 49.16095,-109.589997 109.589997,-109.589997 60.42905,0 109.59,49.16095 109.59,109.589997 0,26.84112 -9.71417,51.44548 -25.79299,70.51976 z m -83.79701,-46.02218 c -28.161817,0 -51.071747,-22.90993 -51.071747,-51.07175 0,-28.161817 22.90993,-51.071747 51.071747,-51.071747 28.15901,0 51.07175,22.90993 51.07175,51.071747 0,28.16182 -22.91274,51.07175 -51.07175,51.07175 z" />
</svg>
