<?xml version="1.0" encoding="UTF-8" standalone="no"?>
<svg
   width="640"
   height="723"
   viewBox="0 0 640 723"
   fill="none"
   version="1.1"
   id="svg4"
   xmlns="http://www.w3.org/2000/svg"
   xmlns:svg="http://www.w3.org/2000/svg">
  <g
     clip-path="url(#clip0_973_50576)"
     id="g4">
    <path
       id="rect1"
       style="fill:#478794;fill-opacity:1"
       d="M 0,0 H 640 V 723 H 0 Z" />
    <path
       fill-rule="evenodd"
       clip-rule="evenodd"
       d="m 601.24213,-72.312415 c 29.137,7.4148 45.118,36.3281 68.922,54.6911 22.81,17.59519962 50.614,27.1841996 67.484,50.53297 22.289,30.84933 46.814,64.77473 43.2,102.659725 -3.897,40.864 -23.259,91.262 -62.764,102.442 -41.998,11.885 -73.548,-46.074 -116.842,-51.615 -33.875,-4.335 -66.332,39.36 -96.96,24.254 -29.786,-14.691 -22.651,-59.889 -36.495,-90.0742 -16.553,-36.091895 -59.555,-64.673095 -52.388,-103.726715 7.123,-38.81808 50.059,-60.43518 85.647,-77.50958 31.075,-14.9095 66.794,-20.1545 100.196,-11.6543 z"
       fill="#7E9CD6"
       id="path1"
       style="fill:#8fa9db;fill-opacity:1" />
    <path
       fill-rule="evenodd"
       clip-rule="evenodd"
       d="m 43.6256,451.728 c 43.8848,-2.371 91.2994,-0.664 121.3004,31.879 32.332,35.074 38.284,85.818 30.906,133.229 -8.182,52.573 -23.746,112.655 -72.322,132.893 -47.1332,19.637 -93.7424,-20.108 -138.3201,-45.134 -39.7486,-22.315 -86.7999,-42.14 -97.0459,-87.001 -10.269,-44.96 18.0161,-88.245 49.3804,-121.704 27.7042,-29.555 65.93215,-41.993 106.1012,-44.162 z"
       fill="#D5AC87"
       id="path2"
       style="fill:#d9b796;fill-opacity:1" />
    <path
       fill-rule="evenodd"
       clip-rule="evenodd"
       d="m 487.18048,303.99626 c 51.447,4.498 85.051,49.065 116.613,89.956 30.663,39.725 64.63,82.952 54.845,132.178 -10.017,50.39 -54.619,85.315 -102.013,105.108 -44.109,18.421 -93.276,15.447 -136.179,-5.632 -42.457,-20.859 -72.355,-58.469 -86.313,-103.68 -15.628,-50.622 -22.719,-107.524 7.726,-150.876 32.263,-45.941 89.41,-71.943 145.321,-67.054 z"
       fill="#75B1BB"
       id="path3"
       style="fill:#84bac2;fill-opacity:1" />
    <path
       fill-rule="evenodd"
       clip-rule="evenodd"
       d="m 141.817,34.7938 c 46.875,-7.1051 101.111,-7.5016 132.185,28.3623 31.954,36.8799 28.87,92.6629 12.542,138.6749 -14.173,39.942 -50.298,66.224 -90.23,80.261 -34.35,12.075 -68.636,-0.49 -103.0733,-12.312 C 49.1667,254.65 -12.7945,251.955 -23.6686,206.577 -34.5578,161.135 19.4017,130.466 51.7981,96.8371 78.4074,69.2152 103.928,40.5371 141.817,34.7938 Z"
       fill="#D6917C"
       id="path4"
       style="fill:#da9c8b;fill-opacity:1" />
  </g>
  <defs
     id="defs4">
    <clipPath
       id="clip0_973_50576">
      <rect
         width="640"
         height="723"
         fill="#ffffff"
         id="rect4"
         x="0"
         y="0" />
    </clipPath>
  </defs>
</svg>
