<?xml version="1.0" encoding="UTF-8" standalone="no"?>
<svg
   width="48"
   height="48"
   fill="none"
   version="1.1"
   id="svg115"
   xmlns:xlink="http://www.w3.org/1999/xlink"
   xmlns="http://www.w3.org/2000/svg"
   xmlns:svg="http://www.w3.org/2000/svg">
  <g
     clip-path="url(#a)"
     id="g111">
    <rect
       width="48"
       height="48"
       fill="#ffffff"
       rx="24"
       id="rect1"
       x="0"
       y="0"
       style="display:inline" />
    <g
       clip-path="url(#b)"
       id="g110">
      <path
         fill="url(#c)"
         d="M -2.091,40.864 H 49.76 v 8.725 H -2.091 Z"
         opacity="0.63"
         id="path1" />
      <path
         fill="#e0e0e0"
         d="m -9.63,31.163 c 0,0 5.94,-7.443 10.007,-11.128 4.067,-3.685 8.476,-8.007 8.476,-8.007 l 0.423,0.448 c 0,0 -8.208,7.171 -12.674,12.01 -4.463,4.834 -5.5,7.456 -5.5,7.456 l -0.734,-0.777 z"
         id="path2" />
      <path
         fill="#ebebeb"
         d="M 20.15,8.536 C 20.3,8.226 20.439,7.884 20.378,7.55 20.295,7.091 19.866,6.791 19.452,6.583 17.683,5.693 13.961,6.937 12.082,7.675 l -4.518,7.66 c 6.149,0.33 10.73,-2.931 12.586,-6.799 z"
         id="path3" />
      <path
         fill="#e0e0e0"
         d="m 20.027,7.682 a 0.515,0.515 0 0 1 -0.106,0.05 l -0.309,0.126 c -0.27,0.106 -0.659,0.264 -1.136,0.465 -0.956,0.4 -2.26,0.995 -3.655,1.742 a 43.987,43.987 0 0 0 -3.48,2.084 c -0.432,0.287 -0.78,0.524 -1.018,0.691 -0.113,0.076 -0.204,0.14 -0.277,0.188 a 0.499,0.499 0 0 1 -0.1,0.06 0.498,0.498 0 0 1 0.088,-0.076 L 10.3,12.807 c 0.231,-0.177 0.573,-0.423 1.001,-0.719 A 37.24,37.24 0 0 1 18.45,8.255 C 18.932,8.062 19.325,7.915 19.6,7.82 19.728,7.777 19.832,7.74 19.915,7.713 a 0.521,0.521 0 0 1 0.112,-0.03 z"
         id="path4" />
      <path
         fill="#e0e0e0"
         d="M 5.32,15.943 C 4.687,13.357 5.547,10.669 7.432,8.715 8.75,7.349 10.492,6.485 12.228,5.732 12.379,5.666 12.545,5.6 12.7,5.646 c 0.216,0.064 0.31,0.31 0.36,0.529 0.44,1.898 -0.224,3.927 -1.24,5.63 -0.675,1.135 -1.52,2.19 -2.589,2.968 -1.068,0.778 -2.607,1.226 -3.91,1.17 z"
         id="path5" />
      <path
         fill="#ebebeb"
         d="M 5.32,15.943 A 0.498,0.498 0 0 1 5.398,15.857 L 5.632,15.628 C 5.839,15.432 6.13,15.141 6.484,14.776 A 33.755,33.755 0 0 0 9.06,11.755 63.745,63.745 0 0 0 11.342,8.504 c 0.274,-0.416 0.5,-0.756 0.665,-1.005 L 12.19,7.228 A 0.532,0.532 0 0 1 12.26,7.137 0.475,0.475 0 0 1 12.208,7.239 L 12.04,7.52 c -0.147,0.244 -0.364,0.593 -0.638,1.022 a 50.004,50.004 0 0 1 -2.261,3.273 29.55,29.55 0 0 1 -2.606,3.01 c -0.361,0.36 -0.662,0.644 -0.877,0.831 l -0.247,0.216 a 0.452,0.452 0 0 1 -0.09,0.07 z m -8.7,11.803 c 1.19,2.01 1.278,4.508 2.203,6.658 0.613,1.422 1.605,2.747 1.643,4.308 0.334,-0.698 0.23,-1.508 0.089,-2.258 a 28.037,28.037 0 0 0 -1.9,-6.126 c -0.444,-1.003 -0.991,-2.03 -1.935,-2.59 m 1.998,-4.97 c 1.385,0.686 2.495,1.826 3.363,3.1 0.868,1.274 1.513,2.687 2.154,4.093 C 4.873,29.157 4.879,28.049 4.854,27.037 4.835,26.275 4.816,25.508 4.652,24.767 4.489,24.027 4.172,23.306 3.632,22.781 2.98,22.148 2.037,21.849 1.116,21.9 c -0.92,0.05 -1.656,0.303 -2.398,0.868 z m 4.488,-3.124 c 1.07,0.233 2.125,0.494 3.095,0.88 0.97,0.384 2.086,0.544 3.082,0.86 1.292,0.41 2.662,0.528 4.001,0.759 1.34,0.23 2.695,0.593 3.765,1.412 -0.577,-0.946 -1.446,-1.684 -2.398,-2.256 -0.95,-0.572 -1.988,-0.988 -3.02,-1.402 C 10.297,19.322 8.835,18.741 7.284,18.629 5.733,18.518 4.267,18.477 3.206,19.644 Z"
         id="path6" />
      <path
         fill="#e0e0e0"
         d="M 2.855,24.753 C 2.849,24.756 2.801,24.69 2.721,24.567 L 2.577,24.342 C 2.522,24.254 2.441,24.167 2.361,24.063 2.037,23.663 1.492,23.149 0.726,22.909 a 3.548,3.548 0 0 0 -1.107,-0.183 c -0.348,-0.01 -0.663,0.03 -0.923,0.082 -0.524,0.1 -0.821,0.26 -0.829,0.243 a 0.882,0.882 0 0 1 0.206,-0.115 c 0.14,-0.06 0.344,-0.142 0.609,-0.199 0.263,-0.061 0.583,-0.11 0.94,-0.106 a 3.5,3.5 0 0 1 1.139,0.18 c 0.79,0.248 1.344,0.788 1.658,1.206 0.076,0.108 0.154,0.2 0.206,0.292 l 0.13,0.236 c 0.07,0.131 0.106,0.204 0.1,0.208 z m 8.612,-4.182 a 0.572,0.572 0 0 1 -0.124,-0.032 l -0.348,-0.11 C 10.694,20.333 10.256,20.199 9.711,20.048 A 24.4,24.4 0 0 0 7.773,19.603 C 7.037,19.469 6.218,19.353 5.352,19.349 4.92,19.352 4.494,19.38 4.104,19.489 a 56.5,56.5 0 0 0 -1.14,0.346 c -0.723,0.23 -1.365,0.465 -1.892,0.695 -0.526,0.23 -0.936,0.452 -1.214,0.615 -0.278,0.162 -0.424,0.264 -0.43,0.255 a 4.742,4.742 0 0 1 0.41,-0.29 c 0.272,-0.174 0.68,-0.407 1.206,-0.646 0.526,-0.24 1.169,-0.484 1.893,-0.72 0.361,-0.117 0.744,-0.234 1.14,-0.352 0.407,-0.114 0.84,-0.143 1.277,-0.146 0.876,0.004 1.7,0.124 2.438,0.263 a 21.973,21.973 0 0 1 3.217,0.883 l 0.341,0.128 c 0.078,0.03 0.118,0.047 0.117,0.051 z m -11.944,0.266 c -0.005,-0.005 0.045,-0.08 0.14,-0.21 L 0.07,20.071 c 0.34,-0.47 0.798,-1.13 1.229,-1.901 a 19.5,19.5 0 0 0 0.973,-2.04 l 0.266,-0.632 c 0.063,-0.15 0.101,-0.23 0.108,-0.228 0.007,0.002 -0.02,0.088 -0.071,0.242 -0.052,0.153 -0.131,0.374 -0.235,0.644 -0.208,0.54 -0.514,1.287 -0.951,2.063 a 15.58,15.58 0 0 1 -1.694,2.431 c -0.106,0.124 -0.167,0.19 -0.172,0.186 z"
         id="path7" />
      <path
         fill="#ebebeb"
         d="M 4.229,16.113 C 4.984,15.301 5.525,14.308 5.892,13.267 6.896,10.415 6.558,7.153 4.998,4.631 L 2.277,15.974 1.575,17.77 C 2.65,17.53 3.473,16.924 4.229,16.113 Z"
         id="path8" />
      <path
         fill="url(#d)"
         d="M 0.032,27.616 H 13.867 V 40.405 H 0.032 Z"
         id="path9" />
      <path
         fill="url(#e)"
         d="m 38.795,29.429 h 8.213 v 8.203 h -8.213 z"
         id="path10" />
      <path
         fill="url(#f)"
         d="m 1.653,41.035 h 5.248 v 5.248 H 1.653 Z"
         id="path11" />
      <path
         fill="#5e674b"
         d="m 46.253,45.704 -0.766,-3.89 h -2.494 l 1.672,3.898 z m -3.01,-2.202 -0.765,-3.889 h -2.495 l 1.672,3.898 z M 0.999,45.7 1.807,40.394 H 4.302 L 2.587,45.708 Z M 3.906,43.54 4.715,38.236 H 7.208 L 5.494,43.549 3.906,43.541 Z"
         id="path12" />
      <path
         fill="#445962"
         d="m 0.48,27.072 c 0,0 2.405,-1.364 5.025,-0.825 0.494,0.102 0.203,5.677 0.203,5.677 l -1.924,1.628 -3.305,-6.48 z"
         id="path13" />
      <path
         fill="#9fab77"
         d="m 0.48,27.072 c 0,0 2.405,-1.364 5.025,-0.825 0.494,0.102 0.203,5.677 0.203,5.677 l -1.924,1.628 -3.305,-6.48 z"
         id="path14" />
      <path
         fill="#caddac"
         stroke="#000000"
         stroke-miterlimit="10"
         d="m 3.143,39.586 c 0,0 -0.005,-4.512 0,-4.6 h 20.719 l 0.217,4.609 -20.936,-0.01 z"
         id="path15" />
      <path
         fill="#caddac"
         stroke="#7b8c6d"
         stroke-miterlimit="10"
         d="M 3.986,40.172 H 0.149 a 0.621,0.621 0 0 1 -0.622,-0.62 v -12 c 0,-0.343 0.279,-0.621 0.622,-0.621 h 3.289 c 0.343,0 0.621,0.278 0.621,0.621 V 40.1 c 0,0.041 -0.033,0.073 -0.073,0.073 z"
         id="path16" />
      <path
         fill="#b2c18e"
         d="m 24.402,31.924 c 0.016,-0.1 -0.149,-0.596 -1.594,-0.544 -1.106,0.04 -16.6,-0.08 -17.356,0.672 -1.92,1.913 -2.294,1.327 -2.5,3.086 L 24.4,34.987 Z"
         id="path17" />
      <path
         fill="#caddac"
         stroke="#7b8c6d"
         stroke-miterlimit="10"
         d="M 48.102,41.815 H -0.184 a 0.284,0.284 0 0 1 -0.284,-0.284 v -1.714 c 0,-0.157 0.127,-0.284 0.284,-0.284 h 48.286 c 0.157,0 0.284,0.127 0.284,0.284 v 1.714 a 0.284,0.284 0 0 1 -0.284,0.284 z m -6.085,-9.891 0.26,-7.29 c 0.024,-0.663 -0.459,-1.212 -1.06,-1.208 l -17.354,0.11 v 8.387 h 18.154 z"
         id="path18" />
      <path
         fill="#caddac"
         stroke="#7b8c6d"
         stroke-miterlimit="10"
         d="m 44.582,39.586 c 0,0 0.005,-4.512 0,-4.6 H 23.863 l 0.096,4.557 z"
         id="path19" />
      <path
         fill="#b2c18e"
         d="m 24.297,31.863 c -0.014,-0.1 0.12,-0.536 1.488,-0.483 1.048,0.04 15.5,-0.12 16.283,0.543 0.782,0.664 2.281,1.335 2.516,3.214 l -20.306,-0.15 0.02,-3.124 z"
         id="path20" />
      <path
         fill="#445962"
         d="m 47.535,26.866 c 0,0 -2.41,-1.159 -5.287,-0.62 -0.543,0.102 -0.223,5.677 -0.223,5.677 l 2.26,1.967 z"
         id="path21" />
      <path
         fill="#9fab77"
         d="m 47.55,26.866 c 0,0 -2.411,-1.159 -5.288,-0.62 -0.542,0.102 -0.222,5.677 -0.222,5.677 l 2.26,1.967 z"
         id="path22" />
      <path
         fill="#caddac"
         stroke="#7b8c6d"
         stroke-miterlimit="10"
         d="m 43.941,39.934 h 3.911 a 0.621,0.621 0 0 0 0.621,-0.622 V 27.315 a 0.621,0.621 0 0 0 -0.62,-0.622 h -3.29 a 0.621,0.621 0 0 0 -0.622,0.622 z m -38.233,-8.01 -0.26,-7.29 c -0.023,-0.663 0.459,-1.212 1.06,-1.208 l 17.354,0.11 0.002,8.387 H 5.708 Z m 38.22,3.036 c 0,0 -0.017,-10e-4 -0.05,-0.006 L 43.729,34.93 43.161,34.835 42.751,34.764 42.261,34.69 C 41.908,34.638 41.508,34.572 41.064,34.52 L 40.367,34.43 C 40.125,34.4 39.872,34.377 39.61,34.348 39.088,34.288 38.527,34.245 37.937,34.196 a 60.416,60.416 0 0 0 -3.846,-0.154 60.57,60.57 0 0 0 -3.849,0.115 c -0.59,0.043 -1.151,0.08 -1.675,0.135 -0.262,0.026 -0.515,0.047 -0.758,0.075 l -0.697,0.082 c -0.445,0.048 -0.846,0.11 -1.198,0.158 l -0.49,0.069 c -0.151,0.023 -0.288,0.046 -0.412,0.066 l -0.57,0.09 -0.148,0.021 c -0.033,0.005 -0.05,0.006 -0.05,0.006 0,0 1.085,-0.222 2.863,-0.45 l 0.698,-0.086 c 0.242,-0.029 0.496,-0.05 0.758,-0.078 0.523,-0.057 1.085,-0.095 1.676,-0.14 a 58.315,58.315 0 0 1 3.852,-0.12 58.24,58.24 0 0 1 3.85,0.159 c 0.59,0.051 1.15,0.095 1.674,0.157 0.261,0.03 0.515,0.054 0.757,0.086 l 0.697,0.093 c 1.775,0.247 2.86,0.48 2.86,0.48 z"
         id="path23" />
      <path
         fill="#7b8c6d"
         d="m 43.928,39.291 c -0.015,0 -0.028,-1.389 -0.028,-3.102 0,-1.714 0.013,-3.103 0.028,-3.103 0.016,0 0.028,1.389 0.028,3.103 0,1.713 -0.012,3.102 -0.028,3.102 z"
         id="path24" />
      <path
         fill="#263138"
         d="m 23.253,34.96 c 0,0 -0.017,-10e-4 -0.05,-0.006 L 23.06,34.93 22.507,34.835 22.109,34.764 21.633,34.69 c -0.342,-0.052 -0.73,-0.118 -1.162,-0.17 L 19.794,34.43 C 19.558,34.4 19.313,34.377 19.058,34.348 18.55,34.288 18.006,34.245 17.433,34.196 a 57.07,57.07 0 0 0 -3.738,-0.154 57.22,57.22 0 0 0 -3.74,0.115 c -0.574,0.043 -1.12,0.08 -1.628,0.135 -0.254,0.026 -0.5,0.047 -0.737,0.075 l -0.677,0.082 c -0.433,0.048 -0.822,0.11 -1.164,0.158 l -0.477,0.069 c -0.146,0.023 -0.279,0.046 -0.4,0.066 l -0.553,0.09 -0.144,0.021 a 0.912,0.912 0 0 1 -0.049,0.006 c 0,0 1.055,-0.222 2.781,-0.45 l 0.678,-0.086 c 0.236,-0.029 0.482,-0.05 0.737,-0.078 0.509,-0.057 1.055,-0.095 1.629,-0.14 a 55.09,55.09 0 0 1 3.744,-0.12 c 1.329,0.01 2.594,0.072 3.742,0.16 0.573,0.05 1.118,0.094 1.627,0.157 0.254,0.03 0.5,0.053 0.736,0.085 l 0.677,0.093 c 1.724,0.247 2.776,0.48 2.776,0.48 z"
         id="path25" />
      <path
         fill="#e0e0e0"
         d="m 22.235,31.034 c 0.292,-1.046 0.003,-2.188 -0.552,-3.122 -0.556,-0.934 -1.356,-1.693 -2.16,-2.423 -0.186,-0.168 -0.38,-0.34 -0.619,-0.416 -0.278,-0.09 -0.58,-0.038 -0.866,0.017 a 54.488,54.488 0 0 0 -4.761,1.136 c -0.21,0.06 -0.434,0.13 -0.576,0.296 -0.261,0.307 -0.132,0.774 0.025,1.144 a 15.115,15.115 0 0 0 3.269,4.83 z"
         id="path26" />
      <path
         fill="#859356"
         d="m 20.613,26.537 c -0.347,-0.365 -0.718,-0.71 -1.09,-1.049 -0.186,-0.168 -0.38,-0.34 -0.619,-0.416 A 1.059,1.059 0 0 0 18.6,25.025 l -1.374,2.293 -4.662,-0.489 c -0.044,0.267 0.052,0.575 0.163,0.836 0.12,0.285 0.25,0.566 0.389,0.843 l 5.14,0.464 z"
         id="path27" />
      <path
         fill="#859356"
         d="m 18.324,31.95 2.381,-0.558 1.617,-1.67 a 4.704,4.704 0 0 0 -0.64,-1.81 6.473,6.473 0 0 0 -0.368,-0.546 l -2.327,3.082 -5.074,-0.532 c 0.394,0.615 0.832,1.202 1.31,1.753 l 3.101,0.28 z"
         id="path28" />
      <path
         fill="#040000"
         d="m 13.374,26.821 c 0,0 1.855,0 3.384,1.299 1.529,1.298 1.482,2.067 1.482,2.067 l 3.443,-2.275 0.935,2.033 -3.935,1.978 -1.925,0.054 -2.5,-2.792 z"
         opacity="0.3"
         id="path29" />
      <path
         fill="#677041"
         d="m 19.56,28.832 a 0.824,0.824 0 0 1 -0.106,-0.113 2.682,2.682 0 0 0 -0.12,-0.134 c -0.048,-0.05 -0.1,-0.111 -0.165,-0.172 a 5.082,5.082 0 0 0 -1.095,-0.827 5.165,5.165 0 0 0 -1.28,-0.499 c -0.085,-0.023 -0.163,-0.035 -0.232,-0.05 -0.069,-0.015 -0.129,-0.024 -0.178,-0.032 a 0.844,0.844 0 0 1 -0.15,-0.03 c 0,-0.004 0.054,0 0.154,0.009 0.05,0.004 0.11,0.01 0.18,0.022 0.069,0.012 0.149,0.022 0.235,0.043 a 4.523,4.523 0 0 1 1.297,0.488 4.592,4.592 0 0 1 1.096,0.848 c 0.064,0.063 0.115,0.125 0.161,0.179 0.047,0.052 0.084,0.1 0.114,0.14 0.06,0.08 0.091,0.126 0.088,0.128 z"
         id="path30" />
      <path
         fill="#c59a7d"
         d="m 6.184,24.673 c 0,0 2.048,1.157 2.972,1.384 0.924,0.227 2.49,0.62 4.217,0.764 1.727,0.145 3.434,1.59 4.036,2.81 0.602,1.218 0.402,2.106 0.201,2.437 -0.2,0.33 -0.874,0.729 -1.446,0.599 -0.571,-0.131 -5.14,-0.062 -5.28,-0.062 -0.141,0 -4.7,-0.373 -4.7,-0.373 0,0 -0.753,-1.362 -0.647,-2.374 C 5.643,28.846 5.763,27.771 5.362,27.42 4.96,27.07 4.458,26.966 4.458,26.966 l 1.707,-2.375"
         id="path31" />
      <path
         fill="#c59a7d"
         d="m 17.289,31.221 c -0.16,0.743 -1.707,1.527 -2.51,1.426 -0.804,-0.1 -1.848,-0.903 -1.848,-0.903 0,0 -0.12,0.2 -0.241,0.02 0,0 0.02,0.903 -0.12,1.003 -0.14,0.101 -5.221,0 -5.221,0 0,0 0.542,-0.682 1.325,-0.722 0.783,-0.04 1.727,0.301 2.35,0.18 0.622,-0.12 0.461,-1.465 0.461,-1.847 0,-0.382 -0.26,-2.189 0.301,-2.61 0.563,-0.422 1.205,-0.442 1.547,-0.402"
         id="path32" />
      <path
         fill="#263138"
         d="m 13.334,27.366 c 0,0 -0.018,0 -0.053,-0.003 a 2.407,2.407 0 0 0 -0.739,0.063 2.11,2.11 0 0 0 -0.614,0.262 c -0.07,0.047 -0.147,0.094 -0.205,0.16 -0.118,0.137 -0.18,0.329 -0.219,0.53 a 3.889,3.889 0 0 0 -0.058,0.654 c -0.004,0.231 0.006,0.473 0.022,0.726 0.015,0.251 0.043,0.517 0.046,0.79 0.012,0.272 0.025,0.556 -10e-4,0.85 a 1.924,1.924 0 0 1 -0.087,0.44 c -0.049,0.143 -0.13,0.293 -0.28,0.37 a 0.487,0.487 0 0 1 -0.115,0.041 l -0.118,0.018 c -0.079,0.006 -0.159,0.01 -0.239,0.008 -0.16,-0.003 -0.32,-0.02 -0.48,-0.041 C 9.872,32.19 9.547,32.127 9.214,32.092 8.881,32.057 8.531,32.044 8.211,32.175 7.891,32.3 7.601,32.518 7.371,32.785 L 7.35,32.739 8.046,32.752 c 1.015,0.016 2,0.03 2.93,0.032 0.466,0 0.92,0.003 1.355,-0.016 0.055,-0.002 0.109,-0.005 0.162,-0.011 l 0.038,-0.005 c 0.013,-0.004 0.018,-0.003 0.026,-0.009 0.014,-0.012 0.024,-0.035 0.035,-0.057 0.033,-0.096 0.045,-0.203 0.055,-0.306 0.018,-0.209 0.022,-0.416 0.02,-0.617 l -0.002,-0.081 0.046,0.067 c 0.027,0.04 0.064,0.073 0.102,0.063 0.038,-0.008 0.074,-0.045 0.098,-0.082 l 0.014,-0.022 0.021,0.016 c 0.308,0.229 0.622,0.425 0.932,0.586 0.31,0.157 0.623,0.283 0.93,0.318 0.309,0.023 0.598,-0.046 0.853,-0.129 0.255,-0.085 0.48,-0.192 0.673,-0.3 0.39,-0.218 0.652,-0.462 0.791,-0.655 0.14,-0.194 0.156,-0.328 0.164,-0.324 l -0.026,0.09 -0.016,0.05 -0.029,0.056 c -0.021,0.04 -0.043,0.09 -0.081,0.136 -0.137,0.198 -0.399,0.447 -0.79,0.67 a 3.87,3.87 0 0 1 -0.676,0.309 c -0.257,0.084 -0.548,0.158 -0.866,0.135 -0.316,-0.034 -0.633,-0.16 -0.947,-0.318 A 6.74,6.74 0 0 1 12.917,31.76 l 0.034,-0.006 c -0.03,0.045 -0.067,0.089 -0.13,0.105 a 0.116,0.116 0 0 1 -0.09,-0.02 0.23,0.23 0 0 1 -0.061,-0.063 l 0.044,-0.014 c 0.003,0.203 0,0.41 -0.017,0.621 -0.011,0.106 -0.022,0.213 -0.058,0.32 -0.013,0.027 -0.023,0.055 -0.05,0.08 a 0.116,0.116 0 0 1 -0.049,0.018 l -0.042,0.006 c -0.055,0.006 -0.11,0.01 -0.164,0.012 -0.439,0.02 -0.892,0.018 -1.357,0.019 A 203.04,203.04 0 0 1 8.045,32.807 L 7.349,32.794 H 7.289 L 7.327,32.749 C 7.566,32.472 7.86,32.252 8.191,32.123 a 1.6,1.6 0 0 1 0.515,-0.108 c 0.173,-0.008 0.344,0.005 0.513,0.022 0.337,0.036 0.662,0.1 0.982,0.143 0.16,0.022 0.318,0.04 0.474,0.043 a 2.04,2.04 0 0 0 0.233,-0.008 c 0.076,-0.012 0.153,-0.016 0.216,-0.052 0.13,-0.068 0.209,-0.205 0.256,-0.342 0.047,-0.14 0.07,-0.285 0.085,-0.429 0.026,-0.288 0.015,-0.571 0.003,-0.844 -0.002,-0.275 -0.028,-0.534 -0.043,-0.788 a 8.919,8.919 0 0 1 -0.018,-0.73 c 0.005,-0.232 0.023,-0.453 0.063,-0.66 0.041,-0.204 0.106,-0.4 0.23,-0.543 0.064,-0.07 0.142,-0.117 0.213,-0.164 a 2.05,2.05 0 0 1 0.624,-0.258 c 0.253,-0.058 0.456,-0.063 0.59,-0.059 0.136,0.006 0.207,0.02 0.207,0.02 z"
         id="path33" />
      <path
         fill="#c59a7d"
         d="m 1.268,26.377 c 0,0 0.593,1.062 1.035,1.387 0.524,0.387 1.04,0.156 1.04,0.156 0,0 0.358,0.256 1.114,-0.136 0.264,-0.136 0.624,0.068 0.711,0.13 0.301,0.217 0.373,0.373 0.532,0.686 0.165,0.328 0.402,0.873 0.402,0.873 L 7.962,27.259 5.648,24.592 3.371,25.1 c 0,0 -0.131,0.246 -0.45,0.343 -0.318,0.096 -1.975,0.674 -1.653,0.934 z"
         id="path34" />
      <path
         fill="#c59a7d"
         d="m 3.012,25.611 c 0,0 0.14,-0.3 0.173,-0.447 0.016,-0.07 0.04,-0.452 0.127,-0.612 0.088,-0.159 0.593,-0.726 1.21,-0.884 0.617,-0.158 1.542,-0.295 2.235,0.135 0.693,0.43 2.185,2.398 2.647,2.616 0.35,0.166 -3.133,2.301 -3.163,2.255 -0.031,-0.046 -3.23,-3.063 -3.23,-3.063 z"
         id="path35" />
      <path
         fill="#859356"
         d="m 5.486,28.28 c 0,0 1.985,-1.134 2.841,-2.958 0.128,0.062 0.353,0.31 0.374,0.453 0,0 -1.187,2.11 -2.957,2.927 C 5.641,28.574 5.51,28.414 5.486,28.279 Z"
         id="path36" />
      <path
         fill="#040000"
         d="m 7.187,24.896 -1.404,2.68 c 0.07,0.198 0.254,0.343 0.462,0.4 0.208,0.055 0.435,0.027 0.64,-0.048 C 7.473,27.712 7.864,27.105 7.892,26.501 7.92,25.897 7.626,25.315 7.187,24.896 Z"
         opacity="0.3"
         id="path37" />
      <path
         fill="#c59a7d"
         d="m 6.175,24.046 c 0.325,0.214 0.652,0.43 0.93,0.702 0.278,0.272 0.509,0.606 0.597,0.984 0.158,0.684 -0.179,1.411 -0.7,1.88 -0.245,0.22 -0.58,0.402 -0.892,0.297 C 5.903,27.839 5.752,27.652 5.67,27.449 5.587,27.248 5.562,27.027 5.53,26.811 A 9.35,9.35 0 0 0 4.91,24.588"
         id="path38" />
      <path
         fill="#263138"
         d="m 4.91,24.587 0.01,0.021 a 6.188,6.188 0 0 1 0.126,0.307 8.956,8.956 0 0 1 0.445,1.577 c 0.022,0.118 0.043,0.241 0.061,0.368 0.02,0.127 0.037,0.258 0.07,0.388 0.032,0.13 0.08,0.26 0.159,0.375 a 0.683,0.683 0 0 0 0.32,0.265 c 0.135,0.05 0.289,0.042 0.43,-0.006 0.141,-0.047 0.273,-0.13 0.393,-0.227 0.475,-0.396 0.773,-0.962 0.799,-1.499 A 1.554,1.554 0 0 0 7.577,25.417 2.193,2.193 0 0 0 7.205,24.868 3.444,3.444 0 0 0 6.801,24.496 7.123,7.123 0 0 0 6.467,24.248 L 6.25,24.098 A 8.857,8.857 0 0 0 6.175,24.045 l 0.02,0.012 0.058,0.036 c 0.051,0.033 0.126,0.08 0.22,0.145 0.095,0.064 0.211,0.143 0.34,0.243 0.128,0.1 0.27,0.22 0.41,0.372 0.139,0.151 0.277,0.333 0.38,0.553 0.103,0.218 0.164,0.479 0.15,0.752 -0.025,0.548 -0.325,1.121 -0.809,1.524 A 1.31,1.31 0 0 1 6.54,27.915 0.68,0.68 0 0 1 6.09,27.92 0.713,0.713 0 0 1 5.753,27.642 1.192,1.192 0 0 1 5.59,27.256 C 5.558,27.123 5.54,26.992 5.521,26.866 A 9.554,9.554 0 0 0 5.033,24.921 C 4.994,24.813 4.963,24.73 4.941,24.674 L 4.916,24.61 Z"
         id="path39" />
      <path
         fill="#040000"
         d="m 4.149,24.742 a 0.398,0.398 0 0 0 -0.219,0.09 c -0.023,0.019 -0.046,0.044 -0.045,0.08 0.001,0.052 0.054,0.086 0.1,0.1 a 0.473,0.473 0 0 0 0.257,0.012 0.197,0.197 0 0 0 0.083,-0.037 0.116,0.116 0 0 0 0.042,-0.086 c 0,-0.053 -0.037,-0.104 -0.08,-0.129 a 0.336,0.336 0 0 0 -0.14,-0.034"
         opacity="0.3"
         id="path40" />
      <path
         fill="#263138"
         d="M 3.733,25.54 C 3.729,25.536 3.758,25.503 3.818,25.47 a 0.51,0.51 0 0 1 0.26,-0.06 c 0.104,0.002 0.192,0.014 0.24,-0.023 0.05,-0.033 0.073,-0.071 0.081,-0.065 0.005,0.002 -0.002,0.047 -0.057,0.097 a 0.202,0.202 0 0 1 -0.12,0.046 c -0.046,0.004 -0.095,0 -0.144,0 C 3.88,25.456 3.742,25.557 3.733,25.54 Z m 3.042,0.422 a 0.774,0.774 0 0 1 0.077,0.197 0.859,0.859 0 0 1 -0.056,0.555 L 6.782,26.743 6.77,26.713 a 8.155,8.155 0 0 0 -0.576,-1.1 L 6.224,25.6 c 0.05,0.236 0.053,0.465 0.027,0.66 L 6.243,26.322 6.223,26.264 6.007,25.654 5.949,25.482 A 0.387,0.387 0 0 1 5.931,25.42 c 0.001,0 0.01,0.02 0.026,0.059 l 0.066,0.169 0.227,0.605 -0.028,0.003 c 0.023,-0.193 0.02,-0.417 -0.03,-0.65 l -0.02,-0.094 0.05,0.082 a 7.413,7.413 0 0 1 0.573,1.107 H 6.77 a 0.864,0.864 0 0 0 0.067,-0.54 C 6.81,26.031 6.77,25.964 6.775,25.962 Z M 1.936,26.083 C 1.893,26.034 1.813,26.027 1.74,26.029 A 1.198,1.198 0 0 0 1.427,26.084 0.35,0.35 0 0 0 1.311,26.14 c -0.033,0.026 -0.097,0.093 -0.093,0.13 a 0.667,0.667 0 0 0 0.314,0.512 c 0.03,0.02 0.07,0.04 0.109,0.024 a 0.125,0.125 0 0 0 0.046,-0.04 c 0.12,-0.147 0.21,-0.314 0.262,-0.488 0.02,-0.066 0.032,-0.143 -0.013,-0.195 z"
         id="path41" />
      <path
         fill="#ffffff"
         d="M 1.508,26.18 C 1.464,26.168 1.416,26.155 1.372,26.169 c -0.03,0.01 -0.059,0.047 -0.066,0.084 a 0.041,0.041 0 0 0 0.034,0.049 0.381,0.381 0 0 0 0.185,-0.025 c 0.02,-0.008 0.04,-0.021 0.043,-0.042 0.004,-0.03 -0.031,-0.047 -0.06,-0.055 z"
         id="path42" />
      <path
         fill="#263138"
         d="m 4.303,27.443 a 0.249,0.249 0 0 1 -0.06,0.054 1.756,1.756 0 0 1 -0.188,0.122 c -0.166,0.094 -0.41,0.21 -0.702,0.326 H 3.35 L 3.346,27.946 C 3.181,27.964 2.996,27.95 2.816,27.89 A 1.64,1.64 0 0 1 2.274,27.572 2.68,2.68 0 0 1 1.92,27.202 3.24,3.24 0 0 1 1.72,26.922 0.558,0.558 0 0 1 1.659,26.812 c 0.008,-0.006 0.106,0.144 0.292,0.364 0.094,0.11 0.21,0.236 0.356,0.356 0.146,0.12 0.321,0.237 0.527,0.305 0.172,0.057 0.349,0.072 0.507,0.056 l -0.007,0.002 c 0.292,-0.11 0.538,-0.22 0.706,-0.305 0.17,-0.085 0.258,-0.152 0.263,-0.147 z"
         id="path43" />
      <path
         fill="#aa715f"
         d="M 12.69,31.79 A 2.73,2.73 0 0 0 12.285,31.084 Z"
         id="path44" />
      <path
         fill="#263138"
         d="m 12.285,31.084 c 0.011,-0.01 0.14,0.125 0.253,0.323 0.114,0.198 0.165,0.378 0.152,0.382 -0.015,0.006 -0.09,-0.16 -0.2,-0.353 -0.111,-0.194 -0.218,-0.342 -0.205,-0.352 z"
         id="path45" />
      <path
         fill="#aa715f"
         d="m 12.924,31.743 c -0.085,-0.27 -0.2,-0.53 -0.341,-0.774 z"
         id="path46" />
      <path
         fill="#263138"
         d="m 12.584,30.968 c 0.012,-0.008 0.122,0.15 0.217,0.367 0.095,0.216 0.138,0.404 0.123,0.408 -0.015,0.005 -0.08,-0.173 -0.174,-0.385 -0.094,-0.213 -0.18,-0.381 -0.166,-0.39 z"
         id="path47" />
      <path
         fill="#aa715f"
         d="m 16.926,31.822 -0.613,0.492 a 0.491,0.491 0 0 0 -0.1,0.097 0.162,0.162 0 0 0 -0.03,0.133"
         id="path48" />
      <path
         fill="#263138"
         d="m 16.182,32.544 c -0.003,0 -0.013,-0.013 -0.015,-0.042 a 0.188,0.188 0 0 1 0.038,-0.116 c 0.03,-0.043 0.078,-0.08 0.126,-0.12 l 0.16,-0.132 c 0.23,-0.184 0.424,-0.324 0.434,-0.312 0.01,0.012 -0.169,0.171 -0.399,0.355 l -0.163,0.128 c -0.05,0.04 -0.097,0.071 -0.127,0.105 -0.06,0.07 -0.046,0.134 -0.054,0.134 z"
         id="path49" />
      <path
         fill="#f7ba9b"
         d="m 9.385,32.641 c 0,0 1.15,-0.2 1.16,-0.192 0.009,0.01 -0.137,1.836 -0.137,1.836 L 9,34.048 c 0,0 -0.15,-1.315 0.384,-1.407 z"
         id="path50" />
      <path
         fill="#e0e0e0"
         d="m 9.383,32.63 c 0,0 -0.655,0.265 -1.04,0.081 C 8.171,32.628 7.776,32.267 7.523,32.298 7.27,32.328 7.111,32.571 6.818,32.555 6.525,32.539 5.248,32.592 4.904,32.72 4.56,32.847 3.685,33.536 3.686,34.1 c 0,0.565 0.333,0.628 1.157,0.51 0.825,-0.118 2.6,-0.437 3.054,-0.51 0.453,-0.072 1.787,0.056 1.787,0.056 0,0 -0.247,-1.31 0.274,-1.665 0,0 -0.257,0.083 -0.575,0.14 z"
         id="path51" />
      <path
         fill="#859356"
         d="m 9.383,32.63 c -0.08,0.016 -0.569,0.467 -0.248,1.483 l 0.58,0.047 c 0,0 -0.289,-1.275 0.243,-1.668 0,0 -0.281,0.078 -0.575,0.138 z M 6.989,32.533 c -0.019,0.006 0.44,0.291 0.812,0.264 0.371,-0.027 0.437,-0.15 0.437,-0.15 0,0 -0.444,-0.338 -0.612,-0.362 -0.19,-0.029 -0.615,0.22 -0.637,0.248 z m -2.617,2.124 c 0.045,-0.012 -0.088,-0.334 0.072,-0.828 0.159,-0.495 0.651,-1.158 0.651,-1.158 0,0 -0.097,-0.02 -0.297,0.067 -0.134,0.059 -0.928,0.55 -1.09,1.195 -0.16,0.644 0.364,0.804 0.664,0.724 z"
         id="path52" />
      <path
         fill="#445962"
         d="M 8.018,33.903 C 8.011,33.901 8.02,33.829 8.042,33.713 L 8.083,33.51 8.096,33.451 c 0.005,-0.018 0.008,-0.043 0.022,-0.067 a 0.095,0.095 0 0 1 0.03,-0.033 c 0.014,-0.012 0.044,-0.013 0.06,0 0.036,0.03 0.029,0.06 0.034,0.08 a 0.739,0.739 0 0 1 -0.088,0.46 C 8.093,33.996 8.032,34.043 8.028,34.038 8.021,34.032 8.07,33.977 8.118,33.872 A 0.788,0.788 0 0 0 8.187,33.439 C 8.185,33.417 8.178,33.395 8.177,33.398 v -0.003 c 0,10e-4 0.002,0.003 0,0.003 a 0.048,0.048 0 0 0 -0.012,0.014 c -0.014,0.025 -0.02,0.075 -0.03,0.11 -0.02,0.07 -0.037,0.136 -0.054,0.2 -0.032,0.114 -0.055,0.183 -0.063,0.181 z"
         id="path53" />
      <path
         fill="#5b5f4a"
         d="m 10.122,32.395 c 0,0 5.782,-1.266 6.645,-1.378 l 0.34,0.298 c 0,0 0.384,-0.522 0.559,-0.559 0.174,-0.037 0.454,0 0.454,0 0,0 1.816,-1.303 3.073,-2.383 1.258,-1.08 2.55,-1.229 4.401,-0.856 1.851,0.372 2.69,1.056 2.69,1.056 l -0.14,5.31 -3.108,0.857 -1.537,-2.16 c 0,0 -4.296,1.639 -5.065,1.639 -0.768,0 -8.312,0.111 -8.312,0.111 0,0 -0.384,-1.079 0,-1.935 z"
         id="path54" />
      <path
         fill="#5b5f4a"
         d="m 18.682,34.324 c 0,0 1.248,-1.472 2.925,-1.933 1.675,-0.462 3.3,0.786 3.3,0.786 l 1.232,1.215 c 0,0 -2.532,0.77 -3.54,0.804 -1.01,0.034 -3.917,-0.872 -3.917,-0.872 z"
         id="path55" />
      <path
         fill="#4b4f3c"
         d="m 18.682,34.324 0.038,0.008 0.11,0.031 0.425,0.12 c 0.369,0.103 0.904,0.253 1.575,0.411 0.336,0.078 0.705,0.16 1.106,0.222 0.1,0.013 0.203,0.03 0.307,0.038 l 0.158,0.014 0.16,0.003 c 0.215,-0.007 0.436,-0.035 0.662,-0.075 0.452,-0.078 0.922,-0.19 1.408,-0.313 0.486,-0.125 0.988,-0.264 1.5,-0.418 l -0.01,0.047 -0.4,-0.394 -0.832,-0.82 0.003,0.002 c -0.807,-0.572 -1.733,-0.9 -2.576,-0.884 a 3.285,3.285 0 0 0 -1.158,0.252 5.515,5.515 0 0 0 -0.92,0.466 7.717,7.717 0 0 0 -1.458,1.19 l -0.072,0.075 a 0.457,0.457 0 0 1 -0.026,0.025 3.118,3.118 0 0 1 0.09,-0.107 7.39,7.39 0 0 1 1.446,-1.214 5.48,5.48 0 0 1 0.923,-0.476 3.312,3.312 0 0 1 1.172,-0.26 c 0.858,-0.018 1.792,0.309 2.61,0.888 l 0.002,10e-4 10e-4,10e-4 c 0.267,0.263 0.547,0.54 0.833,0.82 l 0.399,0.395 0.034,0.033 -0.046,0.013 c -0.514,0.154 -1.016,0.293 -1.503,0.417 -0.488,0.122 -0.96,0.234 -1.413,0.31 -0.227,0.039 -0.451,0.068 -0.67,0.073 L 22.396,35.215 22.236,35.2 C 22.131,35.192 22.029,35.174 21.928,35.16 A 14.53,14.53 0 0 1 20.82,34.93 31.887,31.887 0 0 1 18.826,34.373 l -0.109,-0.036 a 0.225,0.225 0 0 1 -0.035,-0.013 z"
         id="path56" />
      <path
         fill="#4b4f3c"
         d="m 23.474,32.493 c -0.008,-0.009 0.142,-0.132 0.336,-0.374 0.048,-0.061 0.1,-0.128 0.149,-0.205 0.053,-0.075 0.1,-0.16 0.15,-0.248 0.097,-0.181 0.187,-0.388 0.256,-0.614 0.067,-0.226 0.105,-0.449 0.124,-0.652 0.006,-0.103 0.014,-0.2 0.01,-0.29 a 2.262,2.262 0 0 0 -0.012,-0.254 c -0.029,-0.309 -0.086,-0.494 -0.074,-0.497 0.003,-0.001 0.018,0.044 0.043,0.128 0.013,0.042 0.027,0.094 0.037,0.156 0.011,0.061 0.028,0.13 0.034,0.21 0.01,0.078 0.018,0.163 0.018,0.256 0.006,0.092 0,0.191 -0.005,0.295 a 3.341,3.341 0 0 1 -0.121,0.665 c -0.07,0.23 -0.164,0.44 -0.264,0.622 -0.053,0.09 -0.102,0.176 -0.158,0.25 a 2.218,2.218 0 0 1 -0.156,0.203 c -0.049,0.062 -0.1,0.111 -0.143,0.156 a 1.18,1.18 0 0 1 -0.117,0.11 0.615,0.615 0 0 1 -0.107,0.083 z m -6.355,-0.969 c 0.006,0 0.017,0.113 -0.01,0.293 a 1.772,1.772 0 0 1 -0.145,0.487 c -0.015,0.03 -0.026,0.059 -0.047,0.091 -0.02,0.029 -0.052,0.069 -0.108,0.065 a 0.083,0.083 0 0 1 -0.062,-0.04 0.127,0.127 0 0 1 -0.018,-0.06 0.295,0.295 0 0 1 0.015,-0.108 l 0.053,-0.179 0.092,-0.302 c 0.053,-0.172 0.09,-0.277 0.098,-0.275 0.008,0.002 -0.016,0.11 -0.06,0.285 l -0.08,0.306 -0.05,0.18 a 0.245,0.245 0 0 0 -0.012,0.088 c 0.002,0.029 0.012,0.047 0.03,0.049 0.017,0.003 0.04,-0.016 0.055,-0.04 0.016,-0.024 0.03,-0.055 0.044,-0.083 a 2.064,2.064 0 0 0 0.156,-0.47 c 0.036,-0.176 0.04,-0.288 0.049,-0.287 z m 9.738,1.114 c 0,0.007 -0.13,0.013 -0.339,0.012 a 14.69,14.69 0 0 1 -1.632,-0.098 c -0.208,-0.024 -0.335,-0.046 -0.334,-0.053 0,-0.008 0.13,0 0.338,0.014 l 0.815,0.054 0.814,0.044 c 0.208,0.01 0.338,0.019 0.338,0.027 z"
         id="path57" />
      <path
         fill="#564745"
         d="m 40.376,24.747 a 1.448,1.448 0 0 0 -0.625,-0.38 c -0.404,-0.107 -0.833,-0.17 -1.238,-0.068 -0.522,0.132 -0.947,0.531 -1.211,1 -0.265,0.469 -0.386,1.005 -0.468,1.537 -0.08,0.532 -0.125,1.07 -0.252,1.594 l 4.148,-2.593 c 0.043,-0.237 -0.116,-0.853 -0.354,-1.09 z"
         id="path58" />
      <path
         fill="#564745"
         d="m 40.54,24.05 c 0.946,-0.046 1.799,0.269 2.444,0.96 0.365,0.391 0.43,0.63 0.611,0.985 0.181,0.355 0.26,0.75 0.173,1.139 -0.104,0.461 -0.271,0.922 -0.586,1.275 -0.322,0.363 -0.648,0.728 -1.031,1.026 -0.384,0.297 -0.834,0.527 -1.317,0.578 l -0.985,-0.771 c -0.474,-0.49 -1.64,-0.598 -1.97,-1.194 -0.33,-0.597 0.19,-1.705 0.383,-2.358 0.268,-0.907 1.333,-1.594 2.279,-1.64 z"
         id="path59" />
      <path
         fill="#f8c8b4"
         d="m 41.282,24.859 1.587,0.782 0.251,0.352 c 0.646,0.72 0.302,1.928 -0.274,2.457 -0.64,0.588 -1.444,1.28 -2.012,1.607 -1.142,0.658 -1.96,-0.087 -1.96,-0.087 l -1.009,0.737 -0.337,0.3 -1.725,2.133 -1.519,-1.352 2.583,-4.234 0.312,0.518 3.485,-3.24 a 0.457,0.457 0 0 1 0.618,0.027 z"
         id="path60" />
      <path
         fill="#564745"
         d="m 41.56,28.323 c 0.03,0.002 0.043,0.158 0.162,0.293 0.117,0.137 0.273,0.174 0.27,0.204 -10e-4,0.013 -0.045,0.023 -0.114,0.008 a 0.459,0.459 0 0 1 -0.345,-0.397 c -0.005,-0.07 0.012,-0.11 0.027,-0.108 z m -1.05,0.287 c 0.008,-0.006 0.093,0.068 0.225,0.194 0.032,0.033 0.067,0.061 0.096,0.048 0.032,-0.013 0.059,-0.059 0.086,-0.11 l 0.186,-0.325 c 0.268,-0.46 0.5,-0.822 0.519,-0.812 0.018,0.011 -0.184,0.392 -0.452,0.851 -0.067,0.113 -0.13,0.22 -0.192,0.322 -0.03,0.046 -0.057,0.107 -0.125,0.132 a 0.115,0.115 0 0 1 -0.1,-0.017 C 40.728,28.876 40.712,28.856 40.697,28.84 40.574,28.705 40.503,28.618 40.51,28.61 Z"
         id="path61" />
      <path
         fill="#e9b19e"
         d="m 38.877,29.972 c 0,0 -0.594,-0.646 -0.734,-1.649 0,0 -0.45,0.906 0.464,1.843 z"
         id="path62" />
      <path
         fill="#564745"
         d="m 42.627,28.292 c -0.053,0.002 -0.113,-0.125 -0.221,-0.245 -0.104,-0.123 -0.222,-0.2 -0.212,-0.252 0.006,-0.024 0.05,-0.036 0.12,-0.019 a 0.487,0.487 0 0 1 0.23,0.152 c 0.073,0.084 0.11,0.18 0.117,0.25 0.009,0.07 -0.01,0.111 -0.034,0.114 z m -1.832,-0.714 c 0.006,-0.03 -0.141,-0.083 -0.24,-0.234 -0.1,-0.149 -0.094,-0.31 -0.124,-0.314 -0.013,-0.003 -0.034,0.036 -0.038,0.107 a 0.46,0.46 0 0 0 0.29,0.438 c 0.066,0.023 0.11,0.017 0.112,0.003 z m 0.198,-1.124 c -0.007,0.053 0.117,0.13 0.23,0.252 0.115,0.12 0.183,0.249 0.237,0.245 0.025,-0.003 0.04,-0.047 0.028,-0.119 A 0.513,0.513 0 0 0 41.354,26.58 0.508,0.508 0 0 0 41.113,26.432 c -0.071,-0.017 -0.115,-0.003 -0.12,0.022 z"
         id="path63" />
      <path
         fill="#f8c8b4"
         d="m 39.194,26.462 c 0.075,-0.061 0.182,-0.292 0.134,-0.376 -0.13,-0.224 -0.436,-0.57 -0.943,-0.165 -0.693,0.553 0.006,1.136 0.026,1.121 0.016,-0.01 0.523,-0.37 0.783,-0.58 z"
         id="path64" />
      <path
         fill="#6d4338"
         d="m 38.512,26.649 c 0,-0.005 -0.018,-0.005 -0.044,-0.018 a 0.155,0.155 0 0 1 -0.073,-0.09 c -0.032,-0.094 0.035,-0.248 0.157,-0.352 a 0.52,0.52 0 0 1 0.2,-0.104 c 0.068,-0.02 0.13,-0.015 0.166,0.017 a 0.08,0.08 0 0 1 0.024,0.098 c -0.012,0.024 -0.03,0.031 -0.028,0.036 0,0.003 0.024,0.005 0.048,-0.023 a 0.099,0.099 0 0 0 0.021,-0.062 0.117,0.117 0 0 0 -0.035,-0.081 c -0.046,-0.05 -0.134,-0.06 -0.209,-0.04 a 0.526,0.526 0 0 0 -0.226,0.112 c -0.136,0.116 -0.21,0.292 -0.159,0.415 0.026,0.06 0.074,0.088 0.107,0.096 0.033,0.008 0.051,0 0.05,-0.004 z"
         id="path65" />
      <path
         fill="#564745"
         d="m 39.301,26.06 -0.022,0.324 c 1.342,0.099 4.343,-0.053 4.17,-0.038 0,0 -0.244,-0.678 -0.82,-1.132 -0.576,-0.454 -1.763,-1.23 -2.381,-0.642 -0.618,0.586 -0.947,1.489 -0.947,1.489 z m 0.816,3.002 c -0.009,0.011 -0.166,-0.127 -0.265,-0.36 -0.101,-0.231 -0.093,-0.44 -0.08,-0.44 0.018,0 0.035,0.198 0.131,0.418 0.094,0.222 0.226,0.371 0.214,0.382 z"
         id="path66" />
      <path
         fill="#564745"
         d="m 43.273,26.288 c -0.112,0.35 -0.512,0.512 -0.875,0.568 A 3.345,3.345 0 0 1 39.829,26.17 c 0.098,0.393 0.514,0.61 0.901,0.728 0.48,0.145 0.984,0.211 1.484,0.196 0.296,-0.009 0.599,-0.049 0.855,-0.196 0.256,-0.147 0.455,-0.422 0.442,-0.716 M 40.026,24.6 a 1.02,1.02 0 0 1 0.128,-0.148 c 0.092,-0.087 0.24,-0.2 0.448,-0.29 0.208,-0.09 0.476,-0.155 0.777,-0.153 0.3,0.001 0.628,0.067 0.951,0.186 0.322,0.122 0.623,0.262 0.857,0.453 0.116,0.096 0.214,0.205 0.283,0.321 0.071,0.116 0.106,0.24 0.12,0.354 a 0.747,0.747 0 0 1 -0.122,0.517 0.54,0.54 0 0 1 -0.102,0.104 0.194,0.194 0 0 1 -0.043,0.027 c -0.005,-0.005 0.058,-0.042 0.127,-0.144 a 0.74,0.74 0 0 0 0.1,-0.5 0.833,0.833 0 0 0 -0.12,-0.334 1.218,1.218 0 0 0 -0.276,-0.304 C 42.926,24.506 42.628,24.368 42.31,24.248 a 2.88,2.88 0 0 0 -0.932,-0.188 1.94,1.94 0 0 0 -0.76,0.138 c -0.207,0.083 -0.355,0.19 -0.45,0.27 -0.093,0.082 -0.137,0.136 -0.142,0.133 z"
         id="path67" />
      <path
         fill="#3d2e2c"
         d="m 40.195,24.094 c 10e-4,0.004 -0.06,0.02 -0.167,0.052 a 3.213,3.213 0 0 0 -0.443,0.171 c -0.362,0.168 -0.834,0.49 -1.188,0.991 a 3.044,3.044 0 0 0 -0.533,1.452 c -0.018,0.2 -0.017,0.363 -0.01,0.476 0.006,0.112 0.012,0.174 0.007,0.175 -0.002,0 -0.006,-0.015 -0.01,-0.045 -0.005,-0.03 -0.014,-0.072 -0.02,-0.13 a 2.654,2.654 0 0 1 -0.006,-0.48 c 0.025,-0.402 0.165,-0.969 0.526,-1.48 0.36,-0.512 0.847,-0.835 1.217,-0.995 0.187,-0.081 0.344,-0.13 0.455,-0.156 0.054,-0.014 0.098,-0.02 0.127,-0.026 0.03,-0.005 0.045,-0.007 0.045,-0.005 z"
         id="path68" />
      <path
         fill="#859654"
         d="m 28.049,28.414 c 0,0 0.238,-0.077 0.391,0.076 0.036,0.036 1.051,0.443 1.051,0.443 l 0.382,-0.065 c 0,0 3.066,-2.212 4.91,-2.87 0.295,-0.106 0.778,-0.128 0.974,-0.052 0.564,0.218 1.683,1.846 1.683,1.846 0,0 -1.295,1.223 -0.231,2.27 0.595,0.588 1.487,0.133 1.487,0.133 l 1.726,2.82 c 0,0 -4.821,0.93 -6.809,0.912 -1.987,-0.02 -5.679,0.065 -5.679,0.065 0,0 -0.239,-0.002 -0.315,-1.244 -0.077,-1.243 0.679,-2.903 0.664,-3.077 -0.015,-0.174 -0.234,-1.257 -0.234,-1.257 z"
         id="path69" />
      <path
         fill="#f8c8b4"
         d="m 36.04,32.345 c 0,0 3.624,-1.672 3.797,-1.881 0.172,-0.209 0.325,-0.44 0.652,-0.63 0.325,-0.192 1.629,-0.61 1.629,-0.61 0,0 1.208,-0.906 1.285,-0.829 0.077,0.077 0.48,-0.191 0.614,-0.124 0.134,0.066 0.038,0.584 -0.326,0.834 -0.364,0.249 -3.674,2.363 -4.195,2.943 -0.38,0.42 -1.886,1.204 -2.68,1.6 a 1.489,1.489 0 0 1 -1.022,0.112 l -1.51,-0.372 z"
         id="path70" />
      <path
         fill="#616550"
         d="m 32.35,28.8 c 0,0 -0.371,-0.936 -0.145,-1.26 0.227,-0.323 0.874,0.243 0.874,0.243 z"
         id="path71" />
      <path
         fill="#f8c8b4"
         d="m 33.07,27.792 c -0.066,-0.048 -2.314,3.157 -2.185,4.112 0.13,0.954 0.988,1.14 1.247,1.236 0.259,0.097 4.378,0.49 5.894,0.444 1.516,-0.046 1.743,-0.338 1.888,-0.564 0.146,-0.227 0.502,-1.291 1.149,-1.754 0.647,-0.463 0.631,-0.609 0.599,-0.657 -0.033,-0.049 0.259,-0.194 0.275,-0.356 0.016,-0.162 0,-0.324 0,-0.324 0,0 -0.146,-0.21 -0.97,0.26 -0.826,0.469 -1.069,0.727 -1.069,0.727 l -0.615,0.437 -0.706,0.746 c -0.34,0 -4.795,-0.833 -4.795,-0.833 l 0.76,-1.204 c 0,0 -0.369,-1.473 -1.472,-2.27 z"
         id="path72" />
      <path
         fill="#e9b19e"
         d="m 38.187,33.59 c 0,0.015 -1.23,-0.043 -2.743,-0.13 -1.515,-0.088 -2.742,-0.171 -2.74,-0.187 0,-0.015 1.228,0.043 2.743,0.13 1.514,0.088 2.741,0.171 2.74,0.187 z"
         id="path73" />
      <path
         fill="#616550"
         d="m 36.32,26.768 a 0.869,0.869 0 0 1 -0.018,0.16 c -0.015,0.102 -0.04,0.25 -0.075,0.43 -0.071,0.361 -0.18,0.865 -0.411,1.383 -0.232,0.518 -0.569,0.924 -0.861,1.152 a 2.1,2.1 0 0 1 -0.368,0.239 c -0.046,0.024 -0.084,0.038 -0.109,0.049 -0.025,0.01 -0.038,0.015 -0.04,0.013 -0.006,-0.011 0.21,-0.096 0.492,-0.332 0.282,-0.232 0.606,-0.634 0.835,-1.144 0.23,-0.51 0.343,-1.01 0.423,-1.368 l 0.093,-0.426 a 0.852,0.852 0 0 1 0.04,-0.156 z m 0.468,0.847 c 0.006,0.001 -0.014,0.115 -0.075,0.292 a 2.822,2.822 0 0 1 -0.82,1.19 c -0.143,0.121 -0.243,0.18 -0.246,0.175 -0.006,-0.007 0.085,-0.077 0.22,-0.203 0.134,-0.127 0.308,-0.313 0.467,-0.545 0.159,-0.232 0.271,-0.46 0.341,-0.631 0.07,-0.17 0.104,-0.28 0.113,-0.278 z"
         id="path74" />
      <path
         fill="#616550"
         d="m 34.526,30.073 c -0.01,0.003 -0.052,-0.163 -0.153,-0.418 -0.1,-0.255 -0.264,-0.599 -0.492,-0.95 a 3.828,3.828 0 0 0 -0.692,-0.811 c -0.207,-0.178 -0.36,-0.258 -0.354,-0.268 a 0.476,0.476 0 0 1 0.109,0.052 0.934,0.934 0 0 1 0.12,0.075 c 0.045,0.031 0.099,0.065 0.151,0.11 0.218,0.173 0.484,0.456 0.713,0.812 0.231,0.354 0.39,0.705 0.482,0.966 0.047,0.13 0.077,0.239 0.095,0.314 a 0.533,0.533 0 0 1 0.02,0.118 z M 29.29,29.715 a 0.32,0.32 0 0 1 -0.002,0.067 l -0.017,0.193 -0.07,0.706 -0.11,1.047 a 286.793,286.793 0 0 1 -0.104,0.946 c -0.007,0.055 -0.011,0.11 -0.022,0.169 a 0.302,0.302 0 0 1 -0.079,0.167 0.165,0.165 0 0 1 -0.092,0.043 0.182,0.182 0 0 1 -0.098,-0.02 0.243,0.243 0 0 1 -0.12,-0.14 c -0.04,-0.12 -0.01,-0.233 -0.002,-0.338 l 0.07,-0.618 0.123,-1.046 0.087,-0.704 0.026,-0.191 a 0.318,0.318 0 0 1 0.013,-0.067 0.311,0.311 0 0 1 -0.002,0.068 l -0.015,0.192 -0.07,0.707 -0.11,1.047 -0.067,0.618 c -0.01,0.108 -0.034,0.218 -0.001,0.315 0.026,0.092 0.149,0.164 0.22,0.093 0.07,-0.069 0.068,-0.193 0.083,-0.301 l 0.037,-0.327 0.07,-0.617 0.124,-1.046 0.088,-0.705 0.026,-0.19 a 0.274,0.274 0 0 1 0.014,-0.068 z"
         id="path75" />
      <path
         fill="#e9b19e"
         d="m 33.772,31.27 c -0.009,0.015 -0.277,-0.21 -0.687,-0.287 -0.41,-0.082 -0.742,0.027 -0.745,0.008 -0.002,-0.006 0.077,-0.041 0.214,-0.067 a 1.48,1.48 0 0 1 1.045,0.203 c 0.117,0.075 0.177,0.138 0.173,0.142 z"
         id="path76" />
      <path
         fill="#e0e0e0"
         d="m 39.93,33.316 a 0.48,0.48 0 0 1 0.006,-0.281 c 0.426,-1.237 1.102,-2.485 2.1,-3.386 0.889,-0.804 2.003,-1.366 3.186,-1.556 l 0.998,-0.161 c 0.1,-0.1 0.364,-0.206 0.395,-0.124 0.011,0.029 0.098,0.05 -0.068,0.313 -0.578,0.908 -0.517,1.839 -0.975,2.813 l -0.014,0.03 c -0.748,1.575 -2.294,2.617 -4.03,2.77 a 22.9,22.9 0 0 1 -1.03,0.069 c 0,0 -0.238,0.317 -0.253,-0.065 -0.006,-0.151 -0.185,0.051 -0.314,-0.422 z"
         id="path77" />
      <path
         fill="#859356"
         d="m 40.562,31.532 2.243,-0.262 -1.272,1.168 -1.596,0.596 c 0,0 0.301,-0.962 0.625,-1.502 z m 1.858,-2.204 2.84,-0.255 -1.271,1.168 -2.8,0.35 c 0,0 0.519,-0.759 1.231,-1.263 z"
         id="path78" />
      <path
         fill="#859356"
         d="m 43.889,30.266 c 0,0 0.35,0.011 0.315,0.226 l 1.2,-1.296 c 0,0 -0.067,-0.23 -0.24,-0.123 z"
         id="path79" />
      <path
         fill="#859356"
         d="m 45.404,29.196 0.273,1.494 c 0,0 -0.482,1.234 -1.075,1.623 l -0.373,-1.89 z"
         id="path80" />
      <path
         fill="#677041"
         d="m 46.515,27.796 a 0.549,0.549 0 0 1 -0.06,0.063 l -0.18,0.174 -0.669,0.632 -2.22,2.07 -2.232,2.057 c -0.285,0.258 -0.516,0.469 -0.68,0.619 l -0.188,0.166 a 0.577,0.577 0 0 1 -0.067,0.055 0.56,0.56 0 0 1 0.06,-0.063 l 0.18,-0.174 0.668,-0.632 2.22,-2.07 2.232,-2.056 0.681,-0.62 0.187,-0.165 a 0.406,0.406 0 0 1 0.068,-0.056 z"
         id="path81" />
      <path
         fill="#677041"
         d="m 41.532,32.438 c 0,0 0.25,0.036 0.216,0.25 l 1.284,-1.123 c 0,0 -0.023,-0.237 -0.286,-0.247 z"
         id="path82" />
      <path
         fill="#859356"
         d="m 43.032,31.565 -0.117,1.843 c 0,0 -0.682,0.288 -1.107,0.292 l 0.053,-1.106 z"
         id="path83" />
      <path
         fill="#677041"
         d="m 46.406,28.057 a 0.444,0.444 0 0 1 -0.05,0.067 l -0.151,0.184 c -0.132,0.16 -0.327,0.388 -0.573,0.665 a 35.437,35.437 0 0 1 -4.19,3.993 24.57,24.57 0 0 1 -0.692,0.54 l -0.191,0.143 a 0.476,0.476 0 0 1 -0.07,0.047 0.5,0.5 0 0 1 0.063,-0.056 l 0.185,-0.15 c 0.162,-0.13 0.395,-0.319 0.68,-0.555 a 41.86,41.86 0 0 0 2.163,-1.92 42.161,42.161 0 0 0 2.608,-2.722 l 0.16,-0.177 a 0.445,0.445 0 0 1 0.058,-0.06 z"
         id="path84" />
      <path
         fill="#e9b19e"
         d="m 41.808,29.865 c -0.002,0.004 -0.026,-0.011 -0.078,-0.018 a 0.565,0.565 0 0 0 -0.223,0.033 c -0.19,0.06 -0.447,0.202 -0.744,0.406 -0.148,0.102 -0.308,0.22 -0.477,0.35 l -0.546,0.411 -0.295,0.223 c -0.1,0.072 -0.19,0.166 -0.283,0.258 -0.186,0.186 -0.373,0.385 -0.564,0.59 l -0.01,0.011 -0.016,-0.002 -0.3,-0.052 -3.01,-0.53 -0.912,-0.166 -0.247,-0.048 a 0.517,0.517 0 0 1 -0.085,-0.02 c 0,-0.003 0.03,0 0.087,0.009 a 54.78,54.78 0 0 1 1.163,0.187 l 3.013,0.513 0.301,0.052 -0.025,0.008 c 0.191,-0.206 0.38,-0.404 0.566,-0.591 0.095,-0.092 0.185,-0.185 0.291,-0.262 l 0.297,-0.221 0.547,-0.407 c 0.171,-0.128 0.332,-0.244 0.484,-0.345 0.3,-0.2 0.562,-0.34 0.758,-0.394 a 0.532,0.532 0 0 1 0.232,-0.024 c 0.053,0.011 0.076,0.03 0.076,0.03 z"
         id="path85" />
      <path
         fill="#e9b19e"
         d="m 41.93,29.256 a 0.373,0.373 0 0 1 -0.067,0.076 4.314,4.314 0 0 1 -0.944,0.719 2.18,2.18 0 0 1 -0.867,0.282 c -0.06,0.006 -0.112,0.008 -0.159,0.006 a 0.836,0.836 0 0 1 -0.119,-0.006 0.373,0.373 0 0 1 -0.1,-0.018 c 0,-0.011 0.145,0.007 0.373,-0.022 0.229,-0.026 0.537,-0.12 0.845,-0.292 a 5.34,5.34 0 0 0 0.743,-0.511 c 0.18,-0.147 0.29,-0.241 0.295,-0.234 z"
         id="path86" />
      <path
         fill="#040000"
         d="M 8.469,32.348 C 8.412,32.205 8.225,32.181 8.072,32.184 c -0.475,0.01 -0.949,0.074 -1.409,0.192 -0.27,0.069 -0.554,0.169 -0.72,0.394 -0.15,0.206 -0.172,0.478 -0.188,0.733 l -0.126,1.986 -0.135,0.668 c 0.308,0.222 0.773,0.08 1.004,-0.221 0.23,-0.302 0.271,-0.708 0.242,-1.085 -0.03,-0.379 -0.12,-0.751 -0.118,-1.13 0,-0.095 0.008,-0.194 0.058,-0.275 0.095,-0.154 0.299,-0.186 0.476,-0.22 0.4,-0.078 0.781,-0.244 1.11,-0.484 0.128,-0.095 0.261,-0.246 0.203,-0.394 z"
         opacity="0.3"
         id="path87" />
      <path
         fill="#c59a7d"
         d="m 6.013,35.845 c -0.07,0.068 -0.37,0.456 -0.78,0.333 C 4.825,36.055 4.899,35.406 4.937,35.146 4.974,34.886 5.178,33.105 5.234,32.882 5.289,32.66 5.442,32.084 5.829,31.917 6.217,31.75 7.947,31.33 7.947,31.33 c 0,0 0.061,-0.334 0.395,-0.483 0.334,-0.148 1.679,0.163 1.679,0.163 l -0.26,0.554 c 0,0 0.204,0.372 0.167,0.52 -0.037,0.148 -0.13,0.186 -0.13,0.186 l -3.117,0.5 c 0,0 -0.139,0.26 -0.2,0.316 -0.06,0.056 -0.282,1.503 -0.282,1.503 0,0 0.11,0.056 0.13,0.409 0.018,0.352 -0.242,0.358 -0.242,0.358 0,0 0.216,0.21 -0.074,0.489 z"
         id="path88" />
      <path
         fill="#c59a7d"
         d="m 7.569,31.436 c -0.07,0.02 -1.152,-1.05 -1.714,-0.868 -0.562,0.18 -0.602,0.36 -0.643,0.743 -0.04,0.381 0.165,0.97 0.165,0.97 l 1.301,0.255 0.89,-1.1 z"
         id="path89" />
      <path
         fill="#263138"
         d="m 6.157,35.385 c 0,0.007 -0.057,0.02 -0.15,0.006 a 0.594,0.594 0 0 1 -0.49,-0.487 c -0.014,-0.093 -0.001,-0.151 0.006,-0.15 0.009,0 0.01,0.056 0.033,0.141 a 0.657,0.657 0 0 0 0.168,0.291 0.66,0.66 0 0 0 0.292,0.166 c 0.084,0.024 0.14,0.025 0.14,0.033 z M 5.888,36 c 0.004,0.004 -0.055,0.064 -0.182,0.087 a 0.512,0.512 0 0 1 -0.223,-0.01 0.579,0.579 0 0 1 -0.24,-0.13 0.724,0.724 0 0 1 -0.228,-0.429 c -0.017,-0.125 0,-0.202 0.007,-0.2 0.009,0 0.005,0.076 0.032,0.193 a 0.768,0.768 0 0 0 0.227,0.394 0.544,0.544 0 0 0 0.42,0.143 c 0.118,-0.012 0.182,-0.056 0.187,-0.047 z"
         id="path90" />
      <path
         fill="#c59a7d"
         d="m 5.234,32.882 c 0.045,-0.288 0.232,-0.796 0.505,-0.898 0.273,-0.102 1.934,-0.612 2.209,-0.654 0,0 0.04,-0.473 0.723,-0.58"
         id="path91" />
      <path
         fill="#263138"
         d="m 8.67,30.75 c 0.003,0.01 -0.097,0.02 -0.256,0.083 a 0.832,0.832 0 0 0 -0.26,0.162 0.605,0.605 0 0 0 -0.183,0.337 L 7.968,31.35 7.951,31.354 C 7.623,31.426 7.23,31.55 6.81,31.674 l -0.811,0.25 -0.181,0.058 c -0.06,0.02 -0.112,0.038 -0.156,0.072 a 0.805,0.805 0 0 0 -0.2,0.238 1.97,1.97 0 0 0 -0.18,0.426 C 5.25,32.823 5.239,32.883 5.234,32.882 l 0.003,-0.045 a 1.792,1.792 0 0 1 0.19,-0.565 0.83,0.83 0 0 1 0.207,-0.256 c 0.048,-0.04 0.111,-0.06 0.168,-0.08 0.059,-0.02 0.12,-0.04 0.18,-0.062 0.25,-0.081 0.523,-0.167 0.812,-0.254 0.422,-0.124 0.811,-0.244 1.15,-0.313 l -0.02,0.021 a 0.63,0.63 0 0 1 0.205,-0.36 0.827,0.827 0 0 1 0.274,-0.16 0.995,0.995 0 0 1 0.196,-0.05 c 0.047,-0.007 0.071,-0.01 0.072,-0.007 z"
         id="path92" />
      <path
         fill="#263138"
         d="M 7.701,31.4 C 7.695,31.405 7.591,31.309 7.419,31.16 A 2.467,2.467 0 0 0 6.668,30.7 2.363,2.363 0 0 0 6.203,30.561 0.922,0.922 0 0 0 5.815,30.591 c -0.216,0.065 -0.34,0.14 -0.344,0.13 a 0.333,0.333 0 0 1 0.083,-0.056 c 0.056,-0.03 0.139,-0.076 0.25,-0.113 A 0.92,0.92 0 0 1 6.209,30.51 c 0.155,0.02 0.315,0.076 0.479,0.138 0.333,0.123 0.591,0.324 0.757,0.481 0.084,0.079 0.148,0.146 0.192,0.192 a 0.356,0.356 0 0 1 0.064,0.078 z M 6.32,31.244 c 0.005,-0.014 0.155,0.035 0.294,0.167 a 0.73,0.73 0 0 1 0.176,0.245 l 0.008,0.019 H 6.78 c -0.024,0 -0.037,-0.003 -0.038,-0.007 0,-0.005 0.012,-0.011 0.035,-0.018 L 6.768,31.669 C 6.733,31.628 6.668,31.539 6.575,31.453 6.445,31.328 6.312,31.259 6.32,31.244 Z"
         id="path93" />
      <path
         fill="#263138"
         d="m 6.682,31.152 c 0.014,-0.007 0.059,0.074 0.041,0.181 -0.016,0.108 -0.084,0.171 -0.094,0.16 -0.013,-0.009 0.025,-0.077 0.039,-0.168 0.015,-0.092 0,-0.168 0.014,-0.173 z"
         id="path94" />
      <path
         fill="#aa715f"
         d="M 9.764,31.503 C 9.866,31.404 9.951,31.288 10.013,31.16 Z"
         id="path95" />
      <path
         fill="#263138"
         d="m 10.013,31.16 c 0.014,0.005 -0.015,0.1 -0.086,0.199 -0.072,0.098 -0.153,0.155 -0.163,0.144 -0.01,-0.012 0.05,-0.084 0.117,-0.177 0.068,-0.093 0.117,-0.173 0.132,-0.166 z"
         id="path96" />
      <path
         fill="#aa715f"
         d="M 9.356,32.395 9.783,32.253 C 9.83,32.237 9.88,32.22 9.911,32.177 9.954,32.118 9.945,32.032 9.928,31.957 a 1.346,1.346 0 0 0 -0.253,-0.53"
         id="path97" />
      <path
         fill="#263138"
         d="m 9.674,31.426 c 0.005,-0.004 0.064,0.052 0.133,0.163 0.034,0.056 0.07,0.126 0.1,0.207 0.028,0.082 0.062,0.17 0.063,0.278 0,0.053 -0.02,0.113 -0.064,0.148 -0.043,0.035 -0.09,0.047 -0.13,0.06 L 9.56,32.348 c -0.123,0.036 -0.201,0.054 -0.203,0.047 -0.003,-0.007 0.07,-0.039 0.19,-0.084 L 9.76,32.233 c 0.04,-0.014 0.081,-0.027 0.11,-0.052 0.03,-0.025 0.043,-0.064 0.044,-0.108 0,-0.09 -0.031,-0.181 -0.055,-0.26 A 1.506,1.506 0 0 0 9.773,31.609 C 9.715,31.496 9.668,31.432 9.674,31.426 Z M 4.224,31.25 c 0.016,0 0.028,-0.002 0.028,-0.004 0,-0.002 -0.012,-0.003 -0.028,-0.003 -0.015,0 -0.028,0.002 -0.028,0.003 0,0.002 0.013,0.003 0.028,0.003 z"
         id="path98" />
      <path
         fill="#e0e0e0"
         d="M 31.545,5.542 H 23.337 V 19.13 h 8.208 z"
         id="path99" />
      <path
         fill="#ebebeb"
         d="M 31.273,5.542 H 23.064 V 19.13 h 8.209 z"
         id="path100" />
      <path
         fill="#ffffff"
         d="m 30.923,5.818 h -7.509 v 13.036 h 7.51 V 5.818 Z"
         id="path101" />
      <path
         fill="#ebebeb"
         d="m 29.462,7.512 h -4.618 v 9.648 h 4.617 V 7.512 Z"
         id="path102" />
      <path
         fill="#e0e0e0"
         d="m 24.844,13.746 c -0.01,-0.902 0.8,-1.782 1.692,-1.907 0.426,-0.06 0.878,0.024 1.276,-0.139 0.71,-0.291 0.935,-1.234 1.65,-1.514 l 0.032,6.974 h -4.65 z m 15.61,0.686 h -0.502 v 7.195 h 0.502 z"
         id="path103" />
      <path
         fill="#f5f5f5"
         d="M 40.215,14.432 H 33.02 v 7.195 h 7.195 z"
         id="path104" />
      <path
         fill="#ffffff"
         d="M 40.015,14.632 H 33.22 v 6.795 h 6.795 z"
         id="path105" />
      <path
         fill="#e0e0e0"
         d="m 40.214,14.432 -0.012,0.014 -0.038,0.04 -0.146,0.149 -0.002,10e-4 h -10e-4 c -0.551,0.004 -1.865,0.007 -3.398,0.007 -1.533,0 -2.846,-0.003 -3.398,-0.007 H 33.218 L 33.216,14.635 A 58.588,58.588 0 0 0 33.07,14.485 L 33.032,14.446 A 0.268,0.268 0 0 1 33.02,14.432 l 0.013,0.013 0.04,0.037 0.149,0.147 -0.003,-0.002 c 0.55,-0.004 1.864,-0.006 3.397,-0.006 1.533,0 2.847,0.002 3.398,0.006 l -0.003,0.002 0.149,-0.147 0.04,-0.037 z m -7.194,7.195 0.013,-0.014 a 4.91,4.91 0 0 1 0.038,-0.04 l 0.146,-0.149 h 0.004 a 617.78,617.78 0 0 1 3.397,-0.008 c 1.533,0 2.846,0.003 3.398,0.007 h 0.001 l 0.002,0.001 0.146,0.15 0.038,0.039 0.012,0.014 -0.014,-0.013 -0.039,-0.037 -0.149,-0.147 0.003,0.002 c -0.551,0.004 -1.865,0.006 -3.398,0.006 -1.532,0 -2.846,-0.002 -3.397,-0.006 l 0.003,-0.002 -0.15,0.147 -0.038,0.037 z m 5.014,-4.887 h -2.498 v 2.499 h 2.498 z"
         id="path106" />
      <path
         fill="#caddac"
         stroke="#caddac"
         stroke-miterlimit="10"
         d="m 30.133,20.588 0.073,-0.213 0.11,0.189 c 0.09,0.15 0.212,0.268 0.355,0.337 l 0.179,0.087 -0.158,0.133 a 0.951,0.951 0 0 0 -0.284,0.422 l -0.073,0.213 -0.11,-0.188 A 0.851,0.851 0 0 0 29.87,21.23 l -0.179,-0.087 0.158,-0.132 a 0.953,0.953 0 0 0 0.284,-0.423 z"
         id="path107" />
      <path
         fill="#caddac"
         d="m 44.783,43.974 0.073,-0.213 0.111,0.188 c 0.089,0.151 0.212,0.268 0.355,0.338 l 0.178,0.087 -0.158,0.132 a 0.953,0.953 0 0 0 -0.283,0.423 l -0.074,0.213 -0.11,-0.188 A 0.852,0.852 0 0 0 44.52,44.616 L 44.342,44.529 44.5,44.396 a 0.951,0.951 0 0 0 0.283,-0.422 z m 1.578,-10.566 0.074,-0.213 0.11,0.188 c 0.089,0.151 0.212,0.268 0.355,0.338 l 0.178,0.087 -0.158,0.132 a 0.952,0.952 0 0 0 -0.283,0.423 l -0.074,0.213 -0.11,-0.188 A 0.85,0.85 0 0 0 46.098,34.05 l -0.178,-0.087 0.158,-0.132 a 0.947,0.947 0 0 0 0.283,-0.423 z m -31.786,-15.356 0.043,-0.124 0.064,0.11 a 0.5,0.5 0 0 0 0.206,0.196 l 0.104,0.05 -0.092,0.077 a 0.553,0.553 0 0 0 -0.164,0.246 l -0.043,0.123 -0.064,-0.11 a 0.499,0.499 0 0 0 -0.206,-0.196 l -0.104,-0.05 0.092,-0.077 a 0.55,0.55 0 0 0 0.164,-0.245 z m 27.862,18.01 0.042,-0.124 0.065,0.11 a 0.498,0.498 0 0 0 0.206,0.196 l 0.103,0.05 -0.091,0.077 a 0.552,0.552 0 0 0 -0.165,0.245 L 42.554,36.74 42.49,36.63 a 0.499,0.499 0 0 0 -0.206,-0.196 l -0.103,-0.05 0.091,-0.077 a 0.551,0.551 0 0 0 0.165,-0.245 z M 20.857,12.84 21.02,12.506 21.168,12.85 c 0.118,0.276 0.3,0.505 0.524,0.661 l 0.28,0.195 -0.289,0.176 a 1.49,1.49 0 0 0 -0.554,0.625 l -0.163,0.334 -0.147,-0.344 a 1.535,1.535 0 0 0 -0.525,-0.661 l -0.28,-0.195 0.29,-0.176 a 1.5,1.5 0 0 0 0.553,-0.625 z"
         id="path108" />
      <path
         fill="url(#g)"
         d="m 30.144,35.776 h 6.496 v 6.187 h -6.496 z"
         id="path109" />
      <path
         fill="#ffffff"
         d="M 30.43,5.884 C 30.523,5.88 30.6,5.942 30.604,6.02 30.607,6.1 30.535,6.165 30.444,6.168 30.352,6.172 30.274,6.11 30.271,6.032 30.267,5.952 30.339,5.887 30.431,5.884 Z m -1.906,9.837 c 0.092,-0.003 0.17,0.059 0.173,0.137 0.004,0.079 -0.068,0.145 -0.16,0.148 -0.092,0.003 -0.17,-0.058 -0.173,-0.137 -0.003,-0.078 0.068,-0.145 0.16,-0.148 z m 8.343,2.41 c 0.149,-0.005 0.275,0.095 0.281,0.223 0.006,0.128 -0.11,0.235 -0.26,0.24 -0.15,0.006 -0.276,-0.094 -0.281,-0.222 -0.006,-0.128 0.11,-0.235 0.26,-0.24 z m -4.84,-5.267 1.165,0.223 0.052,-0.282 -0.914,-0.437 z m 7.108,0.571 0.484,0.707 -0.24,0.103 -0.613,-0.492 0.37,-0.318 z m -21.586,6.582 c 0.092,-0.003 0.163,-0.069 0.16,-0.148 -0.004,-0.078 -0.08,-0.14 -0.173,-0.137 -0.092,0.004 -0.164,0.07 -0.16,0.148 0.004,0.08 0.081,0.14 0.173,0.137 z M 17.365,4.874 c 0.092,-0.003 0.164,-0.07 0.16,-0.148 -0.003,-0.079 -0.08,-0.14 -0.172,-0.137 -0.093,0.003 -0.164,0.07 -0.16,0.148 0.003,0.079 0.08,0.14 0.172,0.137 z M 5.24,17.512 c 0.091,-0.003 0.169,0.058 0.172,0.137 0.004,0.078 -0.068,0.145 -0.16,0.148 C 5.16,17.8 5.082,17.739 5.079,17.66 5.076,17.581 5.147,17.515 5.239,17.512 Z m 8.353,2.873 c 0.15,0 0.27,-0.104 0.27,-0.232 0,-0.128 -0.12,-0.232 -0.27,-0.232 -0.15,0 -0.27,0.104 -0.27,0.232 0,0.129 0.12,0.232 0.27,0.232 z m 7.599,-4.81 -0.316,0.985 0.327,0.057 0.554,-0.76 z M 13.046,4.947 14.211,5.17 14.262,4.888 13.348,4.451 Z m -9.043,16.733 0.484,0.707 -0.24,0.102 -0.614,-0.491 0.37,-0.319 z"
         id="path110" />
    </g>
    <path
       id="rect116"
       style="fill:#e0e0e0"
       d="m 11.941827,45.478872 c 0,0 3.888425,-0.212204 5.834721,-0.254584 3.929366,-0.08556 7.861523,-0.0847 11.790892,7.31e-4 1.949181,0.04238 5.843413,0.253853 5.843413,0.253853 v 10.40708 H 11.941827 Z" />
  </g>
  <defs
     id="defs115">
    <pattern
       id="c"
       width="1"
       height="1"
       patternContentUnits="objectBoundingBox">
      <use
         xlink:href="#h"
         transform="scale(.0002 .00122)"
         id="use111" />
    </pattern>
    <pattern
       id="e"
       width="1"
       height="1"
       patternContentUnits="objectBoundingBox">
      <use
         xlink:href="#j"
         transform="scale(.00129 .0013)"
         id="use112" />
    </pattern>
    <pattern
       id="f"
       width="1"
       height="1"
       patternContentUnits="objectBoundingBox">
      <use
         xlink:href="#k"
         transform="scale(.00202)"
         id="use113" />
    </pattern>
    <pattern
       id="g"
       width="1"
       height="1"
       patternContentUnits="objectBoundingBox">
      <use
         xlink:href="#l"
         transform="scale(.00163 .0017)"
         id="use114" />
    </pattern>
    <pattern
       id="d"
       width="1"
       height="1"
       patternContentUnits="objectBoundingBox">
      <use
         xlink:href="#i"
         transform="scale(.00077 .00083)"
         id="use115" />
    </pattern>
    <clipPath
       id="a">
      <rect
         width="48"
         height="48"
         fill="#ffffff"
         rx="24"
         id="rect115"
         x="0"
         y="0" />
    </clipPath>
    <clipPath
       id="b">
      <path
         fill="#ffffff"
         d="M 0,0 H 48 V 48 H 0 Z"
         id="path115" />
    </clipPath>
  </defs>
</svg>
