<?xml version="1.0" encoding="UTF-8" standalone="no"?>
<svg
   width="48"
   height="48"
   fill="none"
   version="1.1"
   id="svg70"
   xmlns:xlink="http://www.w3.org/1999/xlink"
   xmlns="http://www.w3.org/2000/svg"
   xmlns:svg="http://www.w3.org/2000/svg">
  <g
     clip-path="url(#a)"
     id="g67">
    <path
       id="rect1"
       style="fill:#ffffff"
       d="M 24,0 C 37.296,0 48,10.704 48,24 48,37.296 37.296,48 24,48 10.704,48 0,37.296 0,24 0,10.704 10.704,0 24,0 Z" />
    <path
       id="rect71"
       style="display:inline;fill:#e8f0db;fill-opacity:1;stroke-width:0.525075"
       d="m 35.70935,8.6927426 c 0,0 2.076554,-1.9682051 3.991807,-1.1720965 0.502524,-1.7413578 7.346734,-2.5820541 9.31917,-0.8918921 1.369413,1.1734388 1.435593,4.318724 0,5.4102 -2.358289,1.792999 -7.232452,-0.967358 -8.563882,-2.3763903 -1.397723,0.9634173 -3.722318,-0.034 -3.722318,-0.034 0,0 -2.756795,0.6317913 -2.756795,-0.257508 0,-0.9141002 1.732018,-0.6783117 1.732018,-0.6783131 z" />
    <path
       id="rect71-6-5"
       style="display:inline;fill:#e8f0db;fill-opacity:1;stroke-width:0.904551"
       d="m 7.0176022,8.9712644 c 0.7089759,0.758169 2.8325233,1.5800286 6.1319448,0.208568 1.095753,2.0029646 12.856676,1.6768956 15.985888,0.145945 1.157115,-0.10033 3.53529,0.315733 3.555848,-0.990272 0.02385,-1.515239 -2.514406,-1.366041 -3.358765,-1.469476 -0.724702,-1.153849 -4.300664,-2.991134 -5.886791,-2.510717 -0.173878,-1.557755 -2.493316,-3.111453 -3.995722,-3.124408 -2.786357,-0.02403 -4.33019,2.052245 -4.792189,3.598847 -2.407868,-1.659686 -7.4327544,1.344786 -7.4327544,1.344786 0,0 -3.9709108,-0.206984 -3.9709108,1.325019 0,1.574727 2.693444,1.726834 3.7634514,1.471708 z" />
    <path
       id="rect71-6"
       style="display:inline;fill:#e8f0db;fill-opacity:1;stroke-width:0.525075"
       d="m 48.308839,17.032265 c 0.971598,0.646851 7.480755,2.045969 9.453191,0.355807 1.369413,-1.173439 1.435593,-4.318724 0,-5.4102 -2.358289,-1.792999 -7.232452,0.967358 -8.563882,2.37639 -1.397723,-0.963417 -4.325414,1.061496 -4.325414,1.061496 0,0 -2.198373,-0.05103 -2.198373,0.838268 0,0.914099 2.011976,0.510523 2.011976,0.510524 1.117168,0.267017 2.344897,0.660925 3.622502,0.267715 z" />
    <g
       clip-path="url(#b)"
       id="g66">
      <path
         fill="#a3b386"
         stroke="#a3b386"
         stroke-miterlimit="10"
         d="m 7.953,47.268 v -1.205 c 0,-1.855 0.011,-3.704 0.033,-5.497 0.125,-10.245 1.902,-18.863 5.14,-24.924 1.497,-2.802 3.263,-4.984 5.25,-6.486 1.998,-1.51 4.128,-2.275 6.332,-2.275 2.204,0 4.334,0.765 6.33,2.275 1.988,1.502 3.755,3.684 5.252,6.486 3.237,6.06 5.014,14.68 5.14,24.924 0.02,1.793 0.032,3.642 0.032,5.497 v 1.205 z"
         id="path4" />
      <path
         fill="#caddac"
         stroke="#caddac"
         stroke-miterlimit="10"
         d="M 40.018,46.081 H 9.398 c 0,-1.845 0.01,-3.644 0.032,-5.398 0.032,-2.663 0.178,-5.161 0.423,-7.492 1.035,-9.876 3.847,-16.766 7.361,-20.67 0.37,-0.412 0.749,-0.79 1.133,-1.136 4.004,-3.593 8.717,-3.593 12.721,0 0.385,0.345 0.763,0.723 1.134,1.135 1.846,2.052 3.498,4.927 4.8,8.626 1.763,5.005 2.886,11.517 2.983,19.538 0.022,1.753 0.033,3.552 0.033,5.397 z"
         id="path5" />
      <path
         fill="#bcc8a0"
         d="M 42.228,46.081 H 7.188 v 2.443 h 35.04 z"
         id="path6" />
      <path
         fill="#677a43"
         d="m 15.447,41.292 a 0.16,0.16 0 0 1 -0.161,-0.158 c -0.031,-1.678 1.313,-2.404 1.37,-2.434 a 0.1615,0.1615 0 0 1 0.152,0.285 c -0.004,0.002 -0.314,0.169 -0.616,0.518 a 2.348,2.348 0 0 0 -0.584,1.625 0.16,0.16 0 0 1 -0.158,0.164 z m -0.521,-4.165 c 0,0 -1.872,-3.53 4.844,-6.005 a 0.464,0.464 0 0 1 0.613,0.538 c -0.423,1.838 -1.813,6.135 -5.457,5.467 z"
         id="path7" />
      <path
         fill="#677a43"
         d="m 13.085,40.973 c -0.008,0 -0.016,0 -0.023,-0.002 a 0.161,0.161 0 0 1 -0.136,-0.183 c 0.465,-3.211 2.858,-4.705 3.13,-4.864 a 0.162,0.162 0 0 1 0.221,0.055 0.16,0.16 0 0 1 -0.055,0.22 l -0.004,0.003 c -0.113,0.066 -0.71,0.435 -1.352,1.156 a 6.554,6.554 0 0 0 -1.622,3.477 0.16,0.16 0 0 1 -0.159,0.138 z"
         id="path8" />
      <path
         fill="#677a43"
         d="M 14.07,40.973 H 14.063 A 0.16,0.16 0 0 1 13.91,40.804 c 0.065,-1.374 -0.808,-2.628 -0.816,-2.64 a 0.16106288,0.16106288 0 0 1 0.263,-0.186 c 0.039,0.055 0.945,1.358 0.875,2.842 a 0.161,0.161 0 0 1 -0.161,0.153 z"
         id="path9" />
      <path
         fill="#817747"
         d="M 14.534,41.208 H 14.53 a 0.161,0.161 0 0 1 -0.157,-0.165 l 0.137,-5.227 a 0.16154953,0.16154953 0 1 1 0.323,0.008 l -0.138,5.228 a 0.16,0.16 0 0 1 -0.16,0.156 z"
         id="path10" />
      <path
         fill="#677a43"
         d="m 13.413,38.253 c 0,0 -3.808,1.21 -5.042,-5.839 A 0.464,0.464 0 0 1 9.01,31.907 c 1.732,0.745 5.711,2.88 4.403,6.346 z"
         id="path11" />
      <path
         fill="#a5b683"
         d="m 15.88,39.61 c 0,0 3.423,2.06 6.26,-4.51 a 0.464,0.464 0 0 0 -0.504,-0.642 c -1.858,0.323 -6.225,1.478 -5.756,5.151 z m -0.627,-1.986 c -0.265,0.548 -1.066,0.488 -1.248,-0.093 -0.812,-2.593 -2.172,-8.09 0.645,-8.72 3.16,-0.707 2.102,5.712 0.603,8.813 z"
         id="path12" />
      <path
         fill="#677a43"
         d="m 14.603,37.976 h -0.004 a 0.088,0.088 0 0 1 -0.084,-0.092 l 0.297,-7.348 a 0.08856918,0.08856918 0 0 1 0.177,0.007 l -0.298,7.348 a 0.088,0.088 0 0 1 -0.088,0.085 z m 1.372,1.644 a 0.088,0.088 0 0 1 -0.056,-0.156 l 4.07,-3.33 a 0.088,0.088 0 0 1 0.123,0.013 0.087,0.087 0 0 1 -0.012,0.123 l -4.07,3.33 a 0.086,0.086 0 0 1 -0.055,0.02 z"
         id="path13" />
      <path
         fill="#7f8e58"
         d="m 18.91,40.628 -0.227,1.04 -0.073,0.34 -0.157,0.717 -0.074,0.34 -0.554,2.535 a 0.612,0.612 0 0 1 -0.598,0.482 H 12.276 A 0.612,0.612 0 0 1 11.678,45.6 l -0.553,-2.535 -0.074,-0.34 -0.157,-0.718 -0.074,-0.34 -0.227,-1.04 h 8.318 z"
         id="path14" />
      <path
         fill="#b4bb84"
         d="m 18.684,41.668 -0.074,0.34 h -7.716 l -0.074,-0.34 z m -0.231,1.057 -0.074,0.34 h -7.254 l -0.074,-0.34 z"
         id="path15" />
      <mask
         id="f"
         width="12"
         height="17"
         x="29"
         y="30"
         maskUnits="userSpaceOnUse">
        <path
           fill="#ffffff"
           d="m 29.17,46.081 h 10.85 c 0,-1.845 -0.011,-3.644 -0.032,-5.397 -0.046,-3.732 -0.313,-7.136 -0.764,-10.215 H 29.171 v 15.612 z"
           id="path16" />
      </mask>
      <g
         mask="url(#f)"
         id="g20">
        <path
           fill="#a5b683"
           d="m 38.202,43.138 c 0,0 -1.186,0.338 -2.496,-1.358 -0.946,-1.227 -2.62,-3.843 -4.932,-3.888 0,0 2.743,-1.189 5.163,0.022 2.42,1.21 3.712,4.344 2.265,5.224 z"
           id="path17" />
        <path
           fill="#677a43"
           d="m 38.91,48.037 h -0.003 a 0.063,0.063 0 0 1 -0.06,-0.066 c 10e-4,-0.016 0.077,-1.653 -0.248,-3.516 -0.3,-1.712 -1.008,-3.971 -2.686,-5.013 a 0.062,0.062 0 0 1 -0.02,-0.086 0.062,0.062 0 0 1 0.086,-0.02 c 0.76,0.472 1.39,1.221 1.874,2.228 0.385,0.802 0.677,1.768 0.87,2.872 0.328,1.876 0.25,3.525 0.25,3.541 a 0.063,0.063 0 0 1 -0.063,0.06 z"
           id="path18" />
        <path
           fill="#a5b683"
           d="m 39.1,39.402 c 0,0 1.202,-0.281 1.522,-2.4 0.231,-1.532 0.423,-4.633 2.421,-5.795 0,0 -2.974,0.294 -4.502,2.528 -1.526,2.234 -1.132,5.6 0.56,5.667 z"
           id="path19" />
        <path
           fill="#677a43"
           d="m 40.754,48.175 a 0.063,0.063 0 0 1 -0.06,-0.04 c -0.008,-0.023 -0.8,-2.206 -1.377,-4.899 -0.34,-1.583 -0.54,-3.03 -0.596,-4.302 -0.07,-1.593 0.089,-2.915 0.47,-3.928 a 0.062,0.062 0 0 1 0.082,-0.037 0.062,0.062 0 0 1 0.036,0.081 c -0.854,2.262 -0.4,5.685 0.13,8.158 0.576,2.685 1.365,4.861 1.373,4.883 a 0.063,0.063 0 0 1 -0.058,0.084 z"
           id="path20" />
      </g>
      <mask
         id="g"
         width="12"
         height="17"
         x="10"
         y="12"
         maskUnits="userSpaceOnUse">
        <path
           fill="#ffffff"
           d="M 21.4,28.204 V 12.263 h -3.948 c -0.08,0.084 -0.159,0.17 -0.237,0.257 -2.89,3.21 -5.304,8.438 -6.647,15.684 z"
           id="path21" />
      </mask>
      <g
         mask="url(#g)"
         id="g25">
        <path
           fill="#a5b683"
           d="m 11.595,25.317 c 0,0 0.786,0.951 2.827,0.297 1.474,-0.473 4.338,-1.678 6.267,-0.404 0,0 -1.585,-2.535 -4.265,-2.91 -2.68,-0.376 -5.52,1.472 -4.829,3.017 z"
           id="path22" />
        <path
           fill="#677a43"
           d="m 8.234,28.95 0.003,0.002 c 0.029,0.018 0.068,0.009 0.086,-0.02 0.008,-0.014 0.874,-1.405 2.199,-2.755 1.217,-1.24 3.083,-2.7 5.056,-2.605 a 0.063,0.063 0 1 0 0.006,-0.125 c -0.894,-0.043 -1.838,0.217 -2.807,0.772 -0.772,0.442 -1.561,1.072 -2.346,1.871 a 18.043,18.043 0 0 0 -2.215,2.775 0.064,0.064 0 0 0 0.018,0.085 z"
           id="path23" />
        <path
           fill="#a5b683"
           d="m 12.974,21.73 c 0,0 -0.83,-0.913 0.109,-2.84 0.678,-1.392 2.279,-4.055 1.293,-6.146 0,0 2.283,1.93 2.273,4.636 -0.01,2.706 -2.243,5.255 -3.675,4.35 z"
           id="path24" />
        <path
           fill="#677a43"
           d="m 6.637,28.017 c 0.02,0.015 0.05,0.015 0.072,0 a 41.486,41.486 0 0 0 3.912,-3.252 c 1.178,-1.112 2.164,-2.19 2.931,-3.205 0.962,-1.273 1.581,-2.451 1.84,-3.502 a 0.063,0.063 0 0 0 -0.121,-0.03 c -0.58,2.347 -2.895,4.909 -4.735,6.645 -1.997,1.884 -3.882,3.228 -3.9,3.242 a 0.063,0.063 0 0 0 0,0.102 z"
           id="path25" />
      </g>
      <path
         fill="#f8c8b4"
         d="m 29.646,25.01 a 57.162,57.162 0 0 1 -0.558,1.714 51.6,51.6 0 0 1 -0.295,0.85 c -0.102,0.282 -0.2,0.565 -0.306,0.846 -0.21,0.563 -0.42,1.127 -0.643,1.688 -0.113,0.28 -0.224,0.56 -0.342,0.841 l -0.176,0.421 -0.183,0.422 c -0.12,0.28 -0.253,0.564 -0.382,0.846 l -0.208,0.429 -0.052,0.107 a 1.14,1.14 0 0 1 -0.03,0.056 l -0.03,0.059 c -0.042,0.078 -0.081,0.158 -0.125,0.234 a 10.48,10.48 0 0 1 -1.175,1.692 12.17,12.17 0 0 1 -1.406,1.407 12.99,12.99 0 0 1 -1.18,0.89 c -0.069,0.046 -0.14,0.09 -0.212,0.136 l -0.11,0.068 -0.129,0.076 a 1.2913019,1.2913019 0 1 1 -1.459,-2.131 c -0.004,0.002 0.004,-0.005 0.007,-0.008 l 0.014,-0.014 0.032,-0.03 0.068,-0.065 0.14,-0.135 a 15.72,15.72 0 0 0 0.831,-0.863 c 0.356,-0.397 0.689,-0.806 0.985,-1.226 0.295,-0.42 0.557,-0.85 0.769,-1.283 0.027,-0.054 0.05,-0.109 0.076,-0.163 l 0.019,-0.04 0.02,-0.044 0.04,-0.094 0.166,-0.38 c 0.106,-0.261 0.217,-0.519 0.322,-0.787 a 144.94,144.94 0 0 0 1.243,-3.26 l 0.613,-1.649 0.309,-0.825 c 0.102,-0.275 0.207,-0.552 0.31,-0.82 l 0.003,-0.007 a 1.605,1.605 0 0 1 3.034,1.043 z"
         id="path26" />
      <path
         fill="#696c5a"
         d="m 26.438,21.997 c 0,0 -1.097,4.194 -1.73,5.218 l 2.497,2.583 c 0,0 0.169,-5.815 -0.767,-7.8 z"
         id="path27" />
      <path
         fill="#5c624b"
         d="m 35.882,43.389 c -0.017,0.085 -0.017,0.361 -0.041,0.441 l -0.003,0.01 c -0.033,0.108 -0.07,0.212 -0.11,0.312 -0.36,0.883 -3.14,1.012 -5.878,0.705 -2.123,-0.237 -4.22,-0.738 -5.141,-1.355 -0.865,-0.578 0.977,-5.916 0.977,-5.916 l 10.745,1.576 c 0,0 0,1.485 -0.55,4.227 z"
         id="path28" />
      <path
         fill="#5c624b"
         d="m 29.502,46.072 0.15,-1.238 0.04,-0.346 -3.926,-1.812 -0.245,-0.113 -1,-0.462 -0.025,0.243 -0.095,0.9 -0.028,0.271 C 24.284,44.38 24.2,45.233 24.12,46.072 Z"
         id="path29" />
      <path
         fill="#393f29"
         d="m 28.998,46.072 0.137,-1.048 a 0.128,0.128 0 1 0 -0.253,-0.033 l -0.14,1.081 z m -2.128,-5.69 c -0.013,0.066 -0.264,1.37 -1.105,2.294 -0.17,0.187 -0.363,0.358 -0.584,0.5 a 2.467,2.467 0 0 1 -0.808,0.34 l 0.028,-0.27 a 2.235,2.235 0 0 0 0.643,-0.284 c 0.177,-0.114 0.335,-0.25 0.477,-0.398 0.838,-0.88 1.095,-2.213 1.098,-2.228 a 0.128,0.128 0 0 1 0.149,-0.103 c 0.069,0.013 0.114,0.08 0.101,0.149 z m 2.1,3.922 a 0.105,0.105 0 0 0 0.1,0.108 h 0.001 a 0.105,0.105 0 0 0 0.111,-0.098 c 0.019,-0.385 0.042,-0.779 0.067,-1.172 l 0.013,-0.208 c 0.083,-1.286 0.19,-2.55 0.27,-3.44 l 0.018,-0.21 0.048,-0.516 -0.21,-0.034 -0.048,0.52 c -0.006,0.067 -0.012,0.137 -0.02,0.21 -0.078,0.883 -0.183,2.135 -0.267,3.413 l -0.014,0.212 c -0.026,0.408 -0.05,0.817 -0.07,1.215 z"
         id="path30" />
      <path
         fill="#393f29"
         d="m 28.667,42.947 a 2.717,2.717 0 0 0 0.58,0.195 c 0.067,0.013 0.134,0.022 0.201,0.026 a 0.731,0.731 0 0 0 0.357,-0.056 0.435,0.435 0 0 0 0.241,-0.325 c 0.078,-0.397 0.24,-2.035 0.349,-3.194 l 0.02,-0.209 0.046,-0.497 -0.212,-0.026 -0.046,0.503 -0.02,0.208 c -0.11,1.156 -0.27,2.792 -0.346,3.177 -0.017,0.089 -0.057,0.146 -0.128,0.18 -0.112,0.053 -0.28,0.042 -0.448,0.005 a 2.622,2.622 0 0 1 -0.5,-0.171 0.108,0.108 0 0 0 -0.143,0.046 0.102,0.102 0 0 0 0.049,0.138 z"
         id="path31" />
      <path
         fill="#5c624b"
         d="m 35.63,46.072 c 0.069,-0.712 0.131,-1.383 0.187,-1.98 l 0.023,-0.252 10e-4,-0.01 v -0.002 l 0.023,-0.244 c 0.117,-1.269 0.19,-2.096 0.19,-2.096 -0.488,-0.204 -1.36,-0.076 -2.296,0.18 l -0.25,0.072 a 18.872,18.872 0 0 0 -0.719,0.229 c -1.522,0.519 -2.94,1.197 -2.94,1.197 v 2.906 h 5.782 z"
         id="path32" />
      <path
         fill="#393f29"
         d="m 34.996,46.072 c 0.067,-0.935 0.11,-1.552 0.111,-1.575 a 0.128,0.128 0 0 0 -0.118,-0.136 0.128,0.128 0 0 0 -0.136,0.119 l -0.113,1.593 h 0.256 z m 0.845,-2.244 v 0.003 l -10e-4,0.009 -0.024,0.253 c -0.36,0.061 -0.714,0.03 -1.057,-0.095 -0.653,-0.237 -1.165,-0.772 -1.536,-1.305 a 6.253,6.253 0 0 1 -0.434,-0.724 6.162,6.162 0 0 1 -0.303,-0.681 0.128,0.128 0 0 1 0.077,-0.163 0.127,0.127 0 0 1 0.163,0.077 c 0.002,0.007 0.108,0.298 0.311,0.685 0.108,0.205 0.243,0.436 0.404,0.667 0.348,0.497 0.819,0.991 1.405,1.204 0.32,0.116 0.653,0.14 0.995,0.07 z"
         id="path33" />
      <path
         fill="#797e66"
         d="m 37.85,29.764 c 0.002,0.077 -0.008,0.219 -0.02,0.294 -0.112,0.79 -0.221,1.028 -0.26,1.607 -0.017,0.255 -0.093,0.573 -0.12,0.83 -0.022,0.227 -0.064,0.506 -0.118,0.836 -0.056,0.343 -0.123,0.741 -0.193,1.19 a 27.291,27.291 0 0 0 -0.089,0.597 l -0.036,0.262 -0.003,0.519 c -0.12,0.893 -0.182,1.755 -0.264,2.435 l -0.016,0.131 a 7.657,7.657 0 0 1 -0.082,0.51 c -0.03,0.153 -0.065,0.285 -0.105,0.396 l -0.01,0.005 -0.002,0.002 a 0.118,0.118 0 0 0 -0.016,0.008 l -0.018,0.008 c -0.002,0.002 -0.005,0.002 -0.007,0.003 l -0.014,0.007 a 0.041,0.041 0 0 1 -0.01,0.004 l -0.015,0.006 -0.002,10e-4 -0.01,0.004 c -0.04,0.019 -0.105,0.046 -0.142,0.062 l -0.01,0.004 c -0.356,0.153 -0.72,0.283 -1.089,0.39 -0.423,0.125 -0.853,0.22 -1.285,0.29 -0.08,0.014 -0.161,0.026 -0.242,0.038 l -0.02,0.002 a 11.097,11.097 0 0 1 -1.1,0.099 12.146,12.146 0 0 1 -1.203,-0.008 c -0.397,-0.021 -0.79,-0.062 -1.175,-0.12 l -0.123,-0.02 -0.021,-0.003 a 10.372,10.372 0 0 1 -1.014,-0.21 10.5,10.5 0 0 1 -2.094,-0.762 L 26.787,39.112 A 3.28,3.28 0 0 1 26.69,39.062 L 26.666,39.049 A 7.42,7.42 0 0 1 26.08,38.698 l -0.026,-0.017 a 5.933,5.933 0 0 1 -0.667,-0.517 c 0.053,-0.335 0.113,-0.69 0.175,-1.037 v -0.001 l 0.04,-0.225 0.11,-0.609 0.001,-0.002 a 75.828,75.828 0 0 0 0.311,-1.657 l 0.044,-0.251 v -10e-4 c 0.138,-0.797 0.26,-1.555 0.353,-2.155 l 0.03,-0.199 0.059,-0.402 a 37.371,37.371 0 0 0 0.178,-1.472 c 0.027,-0.262 0.049,-0.52 0.066,-0.766 0.01,-0.134 0.02,-0.265 0.027,-0.393 A 12.105,12.105 0 0 0 26.8,28.652 l 0.002,-0.04 a 23.332,23.332 0 0 0 0.026,-0.77 c 0.009,-0.43 0.005,-0.83 -0.005,-1.206 L 26.817,26.441 A 23.641,23.641 0 0 0 26.689,24.72 l -0.02,-0.176 c -0.125,-1.083 -0.276,-1.815 -0.258,-2.307 0.003,-0.087 0.01,-0.167 0.025,-0.24 0.025,-0.13 0.062,-0.247 0.107,-0.351 0.045,-0.104 0.098,-0.196 0.161,-0.279 0.217,-0.288 0.53,-0.45 0.886,-0.574 0.04,-0.015 0.081,-0.029 0.123,-0.041 0.111,-0.037 0.227,-0.07 0.345,-0.104 l 0.126,-0.035 c 0.13,-0.037 0.261,-0.074 0.392,-0.117 h 0.004 c 0.1,-0.033 0.199,-0.067 0.297,-0.105 L 29,20.34 c 0.04,-0.018 0.08,-0.035 0.118,-0.054 0.05,-0.024 0.1,-0.05 0.15,-0.077 a 2.242,2.242 0 0 0 0.784,-0.706 h 3.004 c 0,0 0.177,0.144 0.496,0.323 l 0.114,0.063 0.07,0.036 c 0.025,0.014 0.052,0.027 0.08,0.04 0.015,0.008 0.032,0.015 0.048,0.022 a 4.526,4.526 0 0 0 0.67,0.26 5.567,5.567 0 0 0 0.815,0.188 1.99,1.99 0 0 1 1.081,0.539 c 0.063,0.058 0.123,0.122 0.18,0.19 0.07,0.081 0.136,0.17 0.199,0.264 0.08,0.12 0.155,0.25 0.223,0.391 0.024,0.048 0.045,0.096 0.068,0.146 0.28,0.639 0.455,1.462 0.517,2.446 l 0.1,1.563 0.012,0.174 0.035,0.573 c 0.02,0.35 0.04,0.697 0.058,1.04 0.002,0.07 0.007,0.141 0.01,0.212 0.006,0.159 0.01,0.301 0.013,0.436 0.007,0.346 0,0.644 0.004,1.037 0.002,0.044 0.001,0.275 0.001,0.318 z"
         id="path34" />
      <path
         fill="#412c28"
         d="m 27.86,15.234 a 4.47,4.47 0 0 0 2.782,2.472 c 0.167,0.05 0.302,0.1 0.383,0.147 0.458,0.264 1.147,-0.126 1.559,-0.767 0.37,-0.577 0.121,-1.206 0.396,-1.737 0.682,-1.319 0.117,-2.294 0.117,-2.294 0,0 -0.264,-0.735 -1.646,-0.969 -1.382,-0.234 -2.001,0.387 -3.198,0.445 -1.196,0.059 -1.437,0.146 -1.477,0.761 -0.04,0.615 0.98,1.434 0.98,1.434 0,0 -0.064,0.258 0.065,0.436 0.011,0.014 0.024,0.039 0.039,0.072 z"
         id="path35" />
      <path
         fill="#f8c8b4"
         d="m 33.093,19.536 c -0.11,0.533 -0.908,1.178 -1.353,1.327 -0.693,0.23 -1.407,0.165 -1.971,-0.13 l -0.094,-1.05 -0.019,-0.215 -0.036,-0.407 2.409,-1.891 0.139,-0.11 0.093,-0.073 0.042,0.089 0.047,0.103 -0.01,0.046 c 0.272,1.005 0.315,1.609 0.753,2.311 z"
         id="path36" />
      <path
         fill="#eab8a5"
         d="m 29.73,20.4 c 1.002,-0.33 1.505,-1.163 1.702,-1.682 -0.47,0.45 -1.051,0.767 -1.603,0.762 -0.06,0 -0.117,-0.005 -0.173,-0.012 l 0.074,0.933 z"
         id="path37" />
      <path
         fill="#f8c8b4"
         d="m 28.198,16.088 c 0,0 -0.308,0.055 -0.332,0.457 -0.025,0.403 0.233,1.047 0.627,0.93 0.394,-0.116 -0.295,-1.387 -0.295,-1.387 z"
         id="path38" />
      <path
         fill="#f8c8b4"
         d="m 32.404,17.317 -0.015,0.003 a 2.132,2.132 0 0 1 -0.096,0.341 c -0.368,0.995 -1.54,2.047 -2.566,1.997 A 1.642,1.642 0 0 1 29.553,19.64 c -0.995,-0.161 -1.324,-1.26 -1.272,-2.112 0.001,-0.032 0.004,-0.064 0.007,-0.096 L 28.27,17.274 28.23,16.956 a 21.48,21.48 0 0 0 -0.26,-1.51 c -0.208,-0.977 0.347,-2.479 2.33,-2.962 1.581,-0.386 2.442,0.443 2.73,1.323 0.075,0.224 0.111,0.451 0.113,0.663 a 3.9,3.9 0 0 1 -0.112,0.873 c 0.19,10e-4 0.401,0.092 0.533,0.42 0.243,0.606 -0.452,1.434 -1.16,1.554 z"
         id="path39" />
      <path
         fill="#412c28"
         d="m 33.032,15.343 c -0.36,0.25 -0.587,0.294 -0.587,0.294 l -0.398,0.527 -0.47,-0.27 c 0,0 0.184,-0.606 -0.131,-0.787 -0.316,-0.18 -0.183,-0.575 -0.183,-0.575 0,0 1.27,-0.745 1.769,-0.726 0.073,0.224 0.11,0.452 0.112,0.663 0.003,0.262 -0.042,0.565 -0.112,0.874 z"
         id="path40" />
      <path
         fill="#412c28"
         d="m 27.916,14.304 c 0,0 1.351,-1.036 2.184,-0.729 0.833,0.306 1.163,0.957 1.163,0.957 0,0 1.565,0.2 1.903,-0.214 0.339,-0.415 -0.22,-1.965 -1.424,-2.199 -1.205,-0.234 -2.952,0.244 -3.826,2.185 z"
         id="path41" />
      <path
         fill="#eab8a5"
         d="m 30.154,16.85 c 0.012,0.094 0.255,0.138 0.543,0.1 0.287,-0.04 0.509,-0.147 0.496,-0.241 -0.013,-0.094 -0.256,-0.138 -0.543,-0.099 -0.286,0.04 -0.509,0.147 -0.496,0.24 z m -1.884,0.425 c 0.197,-0.051 0.332,-0.133 0.322,-0.206 -0.01,-0.073 -0.16,-0.116 -0.362,-0.113 z"
         id="path42" />
      <path
         fill="#412c28"
         d="m 29.553,19.64 c 0.056,0.01 0.114,0.016 0.174,0.02 1.026,0.049 2.198,-1.003 2.567,-1.998 -0.03,-0.118 -0.102,-0.224 -0.252,-0.258 l 0.005,-1.24 -0.47,-0.269 c 0,0 -0.27,1.133 -0.65,1.223 -0.38,0.09 -1.267,0.035 -1.623,0.29 0,0 -0.645,-0.16 -1.022,0.12 -0.053,0.852 0.276,1.951 1.271,2.113 z"
         id="path43" />
      <path
         fill="#ffffff"
         d="m 30.044,17.396 c 0,0 0.063,0.665 -0.485,0.782 C 29.012,18.295 28.87,17.76 28.87,17.76 Z"
         id="path44" />
      <path
         fill="#394f42"
         d="m 36.883,27.468 a 0.078,0.078 0 0 0 0.06,-0.128 C 36.935,27.331 36.212,26.5 35.498,25.708 a 0.078,0.078 0 0 0 -0.116,0.104 c 0.714,0.792 1.436,1.621 1.443,1.63 a 0.08,0.08 0 0 0 0.058,0.026 z"
         id="path45" />
      <path
         fill="#394f42"
         d="m 35.383,26.347 0.516,0.005 A 0.078,0.078 0 0 0 35.977,26.274 0.078,0.078 0 0 0 35.9,26.196 l -0.515,-0.005 a 0.0780016,0.0780016 0 0 0 -10e-4,0.156 z"
         id="path46" />
      <path
         fill="#eab8a5"
         d="m 26.188,32.2 c 0,0 -0.841,-0.44 -1.355,-0.354 -0.515,0.085 -0.717,0.717 -0.717,0.717 z"
         id="path47" />
      <path
         fill="#af857a"
         d="m 25.008,37.25 c -1.827,1.13 -3.893,1.903 -6.24,2.26 l -0.149,-0.606 -0.046,-0.187 -1.408,-5.709 -0.046,-0.187 -0.123,-0.497 4.773,-1.729 0.19,0.391 0.085,0.173 2.618,5.38 0.084,0.174 z"
         id="path48" />
      <path
         fill="#9d736c"
         d="m 22.044,31.158 -4.879,1.85 -0.046,-0.187 4.841,-1.836 z m 2.703,5.554 c -2.357,1.519 -5.033,2.036 -6.128,2.192 l -0.046,-0.187 c 1.067,-0.15 3.743,-0.66 6.09,-2.178 z"
         id="path49" />
      <path
         fill="#af857a"
         d="m 18.334,36.235 -0.039,0.002 h -0.078 a 2.175,2.175 0 0 1 -0.275,-0.022 3.253,3.253 0 0 1 -1.288,-0.474 l -0.071,-0.046 -0.036,-0.024 -0.038,-0.027 a 2.744,2.744 0 0 1 -0.14,-0.108 C 16.194,35.39 16.054,35.244 15.917,35.11 15.647,34.842 15.391,34.623 15.094,34.518 a 1.35,1.35 0 0 0 -0.472,-0.076 2.021,2.021 0 0 0 -0.51,0.08 0.701,0.701 0 0 1 -0.173,-0.495 c 0.198,-0.08 0.41,-0.143 0.636,-0.172 0.226,-0.03 0.465,-0.021 0.695,0.033 0.23,0.052 0.447,0.148 0.64,0.262 0.194,0.114 0.366,0.244 0.525,0.37 0.158,0.124 0.307,0.245 0.446,0.336 a 2.36,2.36 0 0 0 0.913,0.329 2.07,2.07 0 0 0 0.403,0.012 l 0.023,-0.003 0.01,-0.001 c 0,0 0.007,-10e-4 -0.002,-10e-4 z"
         id="path50" />
      <path
         fill="#ffffff"
         d="m 13.939,34.028 c 0,0 -1.568,0.364 -1.674,1.695 -0.105,1.332 0.494,4.264 -0.64,4.905 h 2.176 c 0,0 -0.13,-1.724 -0.668,-3.43 -0.302,-0.955 -0.107,-2.234 0.978,-2.675 0,0 -0.207,-0.156 -0.172,-0.495 z"
         id="path51" />
      <path
         fill="#af857a"
         d="m 24.554,36.082 a 4.963,4.963 0 0 1 -0.836,0.22 l -0.103,-0.634 c 0.577,-0.094 1.439,-0.397 1.548,-0.774 0.062,-0.212 -0.1,-0.913 -0.519,-1.797 -0.435,-0.917 -0.862,-1.43 -1.013,-1.488 -0.275,-0.104 -1.118,0.427 -1.703,0.968 l -0.436,-0.47 c 0.015,-0.014 0.369,-0.34 0.81,-0.64 0.668,-0.452 1.177,-0.602 1.557,-0.458 0.556,0.212 1.14,1.339 1.365,1.813 0.226,0.475 0.73,1.645 0.556,2.25 -0.148,0.512 -0.72,0.827 -1.226,1.01 z"
         id="path52" />
      <path
         fill="#f8c8b4"
         stroke="#ddb0a1"
         stroke-miterlimit="10"
         d="m 28.06,31.796 0.063,-0.022 0.2,-0.063 0.204,-0.063 c 0.137,-0.04 0.274,-0.084 0.412,-0.123 l 0.818,-0.244 c 0.541,-0.163 1.08,-0.325 1.581,-0.497 0.249,-0.086 0.492,-0.175 0.69,-0.263 0.049,-0.022 0.096,-0.043 0.135,-0.063 a 0.957,0.957 0 0 0 0.11,-0.062 c 0.003,-0.003 0.007,-0.006 0.006,-0.007 l 0.005,-0.003 0.037,-0.032 0.044,-0.035 c 0.24,-0.199 0.516,-0.53 0.76,-0.92 a 9.57,9.57 0 0 0 0.68,-1.307 c 0.204,-0.47 0.386,-0.964 0.547,-1.468 a 18.5,18.5 0 0 0 0.5,-1.914 12.426,12.426 0 0 0 0.175,-1.098 l 0.004,-0.035 a 1.638,1.638 0 0 1 3.267,0.206 c -0.009,0.362 -0.038,0.698 -0.08,1.028 -0.02,0.165 -0.043,0.327 -0.068,0.489 a 17.61,17.61 0 0 1 -0.555,2.346 c -0.192,0.612 -0.416,1.218 -0.684,1.82 -0.27,0.6 -0.584,1.197 -0.98,1.785 -0.4,0.584 -0.876,1.173 -1.566,1.691 l -0.133,0.095 -0.138,0.093 -0.018,0.011 -0.025,0.015 -0.05,0.03 c -0.035,0.022 -0.063,0.037 -0.095,0.054 l -0.089,0.047 a 4.234,4.234 0 0 1 -0.388,0.172 c -0.095,0.037 -0.184,0.069 -0.273,0.098 -0.35,0.115 -0.669,0.195 -0.984,0.265 -0.629,0.137 -1.233,0.23 -1.84,0.3 l -0.453,0.05 -0.453,0.039 c -0.151,0.013 -0.303,0.02 -0.454,0.029 a 9.952,9.952 0 0 1 -0.228,0.01 l -0.234,0.008 -0.99,0.101 c 0,0 -1.837,1.535 -2.359,0.561 -0.218,-0.407 -1.914,-1.704 -1.028,-2.552 0.546,-0.523 2.975,-0.54 3.927,-0.572 z"
         id="path53" />
      <path
         fill="#696c5a"
         d="m 35.107,21.82 -1.493,6.2 c 0,0 2.819,1.41 3.88,1.362 0,0 1.06,-3.995 1.06,-5.385 0,-1.389 -0.99,-2.755 -2.122,-3.023 -1.132,-0.267 -1.325,0.846 -1.325,0.846 z"
         id="path54" />
      <path
         fill="#412c28"
         d="m 30.247,15.607 c -0.024,0.035 -0.128,0.005 -0.251,0.009 -0.123,0 -0.226,0.033 -0.252,0 -0.011,-0.018 0.003,-0.052 0.047,-0.087 a 0.344,0.344 0 0 1 0.202,-0.065 0.347,0.347 0 0 1 0.204,0.059 c 0.045,0.033 0.061,0.067 0.05,0.084 z m -0.056,0.679 a 0.178,0.178 0 0 1 -0.22,0.116 0.17,0.17 0 0 1 -0.122,-0.21 0.178,0.178 0 0 1 0.22,-0.116 0.17,0.17 0 0 1 0.122,0.21 z m 0.141,-0.259 c -0.023,0.015 -0.13,-0.046 -0.302,-0.04 -0.17,0.003 -0.31,0.07 -0.326,0.055 -0.007,-0.006 0.019,-0.034 0.08,-0.064 0.06,-0.03 0.157,-0.061 0.264,-0.064 a 0.457,0.457 0 0 1 0.236,0.051 c 0.047,0.028 0.06,0.055 0.048,0.062 z M 28.867,15.66 c -0.024,0.035 -0.128,0.005 -0.251,0.009 -0.123,0 -0.226,0.033 -0.252,-0.001 -0.011,-0.017 0.003,-0.052 0.047,-0.086 a 0.344,0.344 0 0 1 0.202,-0.065 0.347,0.347 0 0 1 0.204,0.059 c 0.046,0.033 0.062,0.067 0.05,0.084 z m -0.334,0.69 c -0.03,0.09 0.022,0.188 0.114,0.22 a 0.17,0.17 0 0 0 0.221,-0.102 0.178,0.178 0 0 0 -0.114,-0.22 0.17,0.17 0 0 0 -0.221,0.102 z m -0.162,-0.142 c 0.017,0.014 0.149,-0.057 0.321,-0.066 0.173,-0.01 0.29,0.046 0.31,0.03 0.01,-0.008 -0.005,-0.034 -0.056,-0.06 a 0.497,0.497 0 0 0 -0.245,-0.042 0.623,0.623 0 0 0 -0.259,0.072 c -0.058,0.032 -0.08,0.06 -0.071,0.066 z"
         id="path55" />
      <path
         fill="#412c28"
         d="m 32.852,15.258 c 0,0 -0.425,-0.039 -0.685,0.214 -0.26,0.253 -0.246,0.901 -0.6,0.936 -0.353,0.035 0.123,-1.62 -0.062,-1.85 -0.185,-0.232 -1.217,0.04 -1.532,-0.364 -0.314,-0.404 -0.685,-0.4 -1.047,-0.025 -0.362,0.377 -1.24,0.726 -1.167,0.163 0.073,-0.562 1.402,-2.056 2.559,-2.09 1.156,-0.035 2.355,0.217 2.665,1.37 0.31,1.156 -0.13,1.646 -0.13,1.646 z m -3.376,1.938 c 0,-0.008 -0.086,-0.007 -0.223,0 -0.035,0.002 -0.068,0 -0.078,-0.021 -0.012,-0.023 -0.004,-0.063 0.005,-0.105 l 0.055,-0.277 c 0.074,-0.394 0.12,-0.715 0.105,-0.718 -0.016,-0.002 -0.089,0.314 -0.163,0.708 l -0.05,0.277 c -0.007,0.041 -0.02,0.09 0.006,0.137 a 0.088,0.088 0 0 0 0.065,0.04 c 0.023,0.003 0.042,0 0.059,-0.002 0.136,-0.017 0.22,-0.031 0.22,-0.039 z"
         id="path56" />
      <path
         fill="#d6aa9c"
         d="m 32.71,15.878 c 0.002,0.005 0.023,-0.004 0.06,-0.004 0.034,0 0.089,0.015 0.132,0.06 0.087,0.09 0.097,0.3 0.016,0.484 a 0.64,0.64 0 0 1 -0.168,0.227 c -0.066,0.06 -0.138,0.088 -0.196,0.072 a 0.098,0.098 0 0 1 -0.08,-0.097 c 0,-0.034 0.016,-0.051 0.01,-0.056 0,-0.004 -0.029,0.007 -0.04,0.052 a 0.123,0.123 0 0 0 0.01,0.082 0.147,0.147 0 0 0 0.084,0.072 c 0.08,0.031 0.184,-0.007 0.257,-0.07 a 0.657,0.657 0 0 0 0.194,-0.25 c 0.09,-0.206 0.076,-0.445 -0.05,-0.556 a 0.208,0.208 0 0 0 -0.172,-0.05 c -0.044,0.01 -0.06,0.03 -0.057,0.034 z"
         id="path57" />
      <path
         fill="url(#h)"
         d="m 30.656,28.661 h 4.469 v 4.48 h -4.469 z"
         id="path58" />
      <path
         fill="#ffffff"
         stroke="#ffffff"
         stroke-miterlimit="10"
         d="m 19.012,14.707 c -0.024,0 -0.042,-0.017 -0.042,-0.038 v -1.725 c 0,-0.021 0.019,-0.038 0.042,-0.038 0.023,0 0.042,0.017 0.042,0.038 v 1.725 c 0,0.02 -0.019,0.038 -0.042,0.038 z"
         opacity="0.38"
         id="path59" />
      <path
         fill="#ffffff"
         stroke="#ffffff"
         stroke-miterlimit="10"
         d="m 18.339,14.454 a 0.043,0.043 0 0 1 -0.03,-0.01 0.036,0.036 0 0 1 0,-0.055 l 1.346,-1.22 a 0.045,0.045 0 0 1 0.06,0 0.036,0.036 0 0 1 0,0.054 l -1.346,1.22 a 0.044,0.044 0 0 1 -0.03,0.011 z"
         opacity="0.38"
         id="path60" />
      <path
         fill="#ffffff"
         stroke="#ffffff"
         stroke-miterlimit="10"
         d="M 19.964,13.844 H 18.06 c -0.024,0 -0.042,-0.017 -0.042,-0.038 0,-0.021 0.019,-0.038 0.042,-0.038 h 1.903 c 0.023,0 0.042,0.017 0.042,0.038 0,0.021 -0.019,0.038 -0.042,0.038 z"
         opacity="0.38"
         id="path61" />
      <path
         fill="#ffffff"
         stroke="#ffffff"
         stroke-miterlimit="10"
         d="m 19.685,14.454 a 0.043,0.043 0 0 1 -0.03,-0.01 l -1.346,-1.22 a 0.036,0.036 0 0 1 0,-0.055 0.045,0.045 0 0 1 0.06,0 l 1.346,1.22 a 0.036,0.036 0 0 1 0,0.055 0.048,0.048 0 0 1 -0.03,0.01 z"
         opacity="0.38"
         id="path62"
         style="display:inline" />
      <path
         fill="#ffffff"
         d="m 23.18,29.58 c -0.024,0 -0.043,-0.016 -0.043,-0.038 v -1.735 c 0,-0.022 0.019,-0.039 0.042,-0.039 0.024,0 0.043,0.017 0.043,0.039 v 1.735 c 0,0.022 -0.02,0.039 -0.043,0.039 z"
         opacity="0.54"
         id="path63" />
      <path
         fill="#ffffff"
         d="m 22.502,29.327 a 0.045,0.045 0 0 1 -0.03,-0.012 0.036,0.036 0 0 1 0,-0.054 l 1.354,-1.227 a 0.046,0.046 0 0 1 0.06,0 0.036,0.036 0 0 1 0,0.054 l -1.354,1.227 a 0.045,0.045 0 0 1 -0.03,0.012 z"
         opacity="0.54"
         id="path64" />
      <path
         fill="#ffffff"
         d="M 24.137,28.713 H 22.22 c -0.023,0 -0.042,-0.017 -0.042,-0.039 0,-0.021 0.019,-0.038 0.042,-0.038 h 1.916 c 0.023,0 0.042,0.017 0.042,0.038 0,0.022 -0.019,0.039 -0.042,0.039 z"
         opacity="0.54"
         id="path65" />
      <path
         fill="#ffffff"
         d="m 23.856,29.327 a 0.045,0.045 0 0 1 -0.03,-0.012 l -1.355,-1.227 a 0.036,0.036 0 0 1 0,-0.054 0.046,0.046 0 0 1 0.06,0 l 1.355,1.227 a 0.036,0.036 0 0 1 0,0.055 0.045,0.045 0 0 1 -0.03,0.01 z"
         opacity="0.54"
         id="path66" />
    </g>
  </g>
  <defs
     id="defs70">
    <pattern
       id="h"
       width="1"
       height="1"
       patternContentUnits="objectBoundingBox">
      <use
         xlink:href="#l"
         transform="scale(.00235)"
         id="use70" />
    </pattern>
    <clipPath
       id="a">
      <rect
         width="48"
         height="48"
         fill="#ffffff"
         rx="24"
         id="rect70"
         x="0"
         y="0" />
    </clipPath>
    <clipPath
       id="b">
      <path
         fill="#ffffff"
         d="M 0,0 H 48 V 48 H 0 Z"
         id="path70" />
    </clipPath>
  </defs>
</svg>
